SplineFontDB: 3.0
FontName: Quantico-Italic
FullName: Quantico-Italic
FamilyName: Quantico
Weight: Book
Copyright: Copyright (c) 2011 Matthew Desmond (http://www.madtype.com | mattdesmond@gmail.com), with Reserved Font Name "Quantico"
Version: 2.002
ItalicAngle: -12
UnderlinePosition: -50
UnderlineWidth: 50
Ascent: 800
Descent: 200
sfntRevision: 0x00020083
LayerCount: 2
Layer: 0 1 "Back"  1
Layer: 1 1 "Fore"  0
XUID: [1021 288 713564382 810258]
FSType: 0
OS2Version: 2
OS2_WeightWidthSlopeOnly: 0
OS2_UseTypoMetrics: 1
CreationTime: 1323786017
ModificationTime: 1324066782
PfmFamily: 17
TTFWeight: 400
TTFWidth: 5
LineGap: 0
VLineGap: 0
Panose: 2 0 0 0 0 0 0 0 0 0
OS2TypoAscent: 263
OS2TypoAOffset: 1
OS2TypoDescent: -167
OS2TypoDOffset: 1
OS2TypoLinegap: 0
OS2WinAscent: 30
OS2WinAOffset: 1
OS2WinDescent: 32
OS2WinDOffset: 1
HheadAscent: 30
HheadAOffset: 1
HheadDescent: -32
HheadDOffset: 1
OS2SubXSize: 700
OS2SubYSize: 650
OS2SubXOff: 0
OS2SubYOff: 140
OS2SupXSize: 700
OS2SupYSize: 650
OS2SupXOff: 0
OS2SupYOff: 477
OS2StrikeYSize: 50
OS2StrikeYPos: 250
OS2Vendor: 'MADT'
OS2CodePages: 20000111.00000000
OS2UnicodeRanges: 8000002f.5000004a.00000000.00000000
Lookup: 258 0 0 "'kern' Horizontal Kerning in Latin lookup 0"  {"'kern' Horizontal Kerning in Latin lookup 0 subtable"  } ['kern' ('latn' <'dflt' > ) ]
MarkAttachClasses: 1
DEI: 91125
ShortTable: maxp 16
  1
  0
  268
  62
  7
  22
  3
  2
  0
  1
  1
  0
  64
  0
  2
  1
EndShort
LangName: 1033 "" "" "" "MADtype: Quantico Italic: 2011" "" "Version 2.002" "" "Quantico is a trademark of Matt Desmond." "MADtype" "Matt Desmond" "" "http://www.madtype.com" "http://www.madtype.com" "This Font Software is licensed under the SIL Open Font License, Version 1.1. This license is available with a FAQ at: http://scripts.sil.org/OFL" "http://scripts.sil.org/OFL" 
GaspTable: 1 65535 2
Encoding: UnicodeBmp
UnicodeInterp: none
NameList: Adobe Glyph List
DisplaySize: -36
AntiAlias: 1
FitToEm: 1
WinInfo: 34 34 13
BeginChars: 65546 268

StartChar: exclam
Encoding: 33 33 4
Width: 350
GlyphClass: 2
Flags: W
LayerCount: 2
Fore
SplineSet
100 0 m 1,0,-1
 115 150 l 1,1,-1
 265 150 l 1,2,-1
 250 0 l 1,3,-1
 100 0 l 1,0,-1
163 268 m 1,4,-1
 185 730 l 1,5,-1
 317 730 l 1,6,-1
 243 268 l 1,7,-1
 163 268 l 1,4,-1
EndSplineSet
EndChar

StartChar: quotedbl
Encoding: 34 34 5
Width: 430
GlyphClass: 2
Flags: W
LayerCount: 2
Fore
SplineSet
136 438 m 1,0,-1
 146 730 l 1,1,-1
 256 730 l 1,2,-1
 206 438 l 1,3,-1
 136 438 l 1,0,-1
316 438 m 1,4,-1
 326 730 l 1,5,-1
 436 730 l 1,6,-1
 386 438 l 1,7,-1
 316 438 l 1,4,-1
EndSplineSet
EndChar

StartChar: numbersign
Encoding: 35 35 6
Width: 756
GlyphClass: 2
Flags: W
LayerCount: 2
Fore
SplineSet
423 -20 m 1,0,-1
 461 172 l 1,1,-1
 285 172 l 1,2,-1
 247 -20 l 1,3,-1
 164 -20 l 1,4,-1
 202 172 l 1,5,-1
 78 172 l 1,6,-1
 86 248 l 1,7,-1
 217 248 l 1,8,-1
 258 460 l 1,9,-1
 108 460 l 1,10,-1
 116 536 l 1,11,-1
 273 536 l 1,12,-1
 309 720 l 1,13,-1
 392 720 l 1,14,-1
 356 536 l 1,15,-1
 532 536 l 1,16,-1
 568 720 l 1,17,-1
 651 720 l 1,18,-1
 615 536 l 1,19,-1
 752 536 l 1,20,-1
 744 460 l 1,21,-1
 600 460 l 1,22,-1
 559 248 l 1,23,-1
 722 248 l 1,24,-1
 714 172 l 1,25,-1
 544 172 l 1,26,-1
 506 -20 l 1,27,-1
 423 -20 l 1,0,-1
341 460 m 1,28,-1
 300 248 l 1,29,-1
 476 248 l 1,30,-1
 517 460 l 1,31,-1
 341 460 l 1,28,-1
EndSplineSet
EndChar

StartChar: dollar
Encoding: 36 36 7
Width: 645
GlyphClass: 2
Flags: W
LayerCount: 2
Fore
SplineSet
263 -123 m 1,0,-1
 275 -5 l 1,1,-1
 195 -5 l 1,2,-1
 86 62 l 1,3,-1
 97 165 l 1,4,-1
 197 165 l 1,5,-1
 188 85 l 1,6,-1
 463 85 l 1,7,-1
 486 303 l 1,8,-1
 237 303 l 1,9,-1
 128 370 l 1,10,-1
 157 638 l 1,11,-1
 280 705 l 1,12,-1
 350 705 l 1,13,-1
 362 823 l 1,14,-1
 462 823 l 1,15,-1
 450 705 l 1,16,-1
 513 705 l 1,17,-1
 622 638 l 1,18,-1
 611 535 l 1,19,-1
 511 535 l 1,20,-1
 519 615 l 1,21,-1
 254 615 l 1,22,-1
 232 403 l 1,23,-1
 481 403 l 1,24,-1
 590 336 l 1,25,-1
 561 62 l 1,26,-1
 438 -5 l 1,27,-1
 375 -5 l 1,28,-1
 363 -123 l 1,29,-1
 263 -123 l 1,0,-1
EndSplineSet
EndChar

StartChar: percent
Encoding: 37 37 8
Width: 991
GlyphClass: 2
Flags: W
LayerCount: 2
Fore
SplineSet
469 424 m 1,0,-1
 346 357 l 1,1,-1
 233 357 l 1,2,-1
 124 424 l 1,3,-1
 147 643 l 1,4,-1
 270 710 l 1,5,-1
 383 710 l 1,6,-1
 492 643 l 1,7,-1
 469 424 l 1,0,-1
237 629 m 1,8,-1
 217 438 l 1,9,-1
 380 438 l 1,10,-1
 400 629 l 1,11,-1
 237 629 l 1,8,-1
781 710 m 1,12,-1
 871 710 l 1,13,-1
 282 -10 l 1,14,-1
 192 -10 l 1,15,-1
 781 710 l 1,12,-1
595 276 m 1,16,-1
 718 343 l 1,17,-1
 831 343 l 1,18,-1
 940 276 l 1,19,-1
 916 57 l 1,20,-1
 793 -10 l 1,21,-1
 680 -10 l 1,22,-1
 571 57 l 1,23,-1
 595 276 l 1,16,-1
827 71 m 1,24,-1
 847 262 l 1,25,-1
 684 262 l 1,26,-1
 664 71 l 1,27,-1
 827 71 l 1,24,-1
EndSplineSet
EndChar

StartChar: ampersand
Encoding: 38 38 9
Width: 655
GlyphClass: 2
Flags: W
LayerCount: 2
Fore
SplineSet
667 407 m 1,0,-1
 658 317 l 1,1,-1
 584 317 l 1,2,-1
 557 62 l 1,3,-1
 434 -5 l 1,4,-1
 205 -5 l 1,5,-1
 96 62 l 1,6,-1
 122 311 l 1,7,-1
 214 361 l 1,8,-1
 215 363 l 1,9,-1
 133 413 l 1,10,-1
 157 638 l 1,11,-1
 280 705 l 1,12,-1
 469 705 l 1,13,-1
 578 638 l 1,14,-1
 566 525 l 1,15,-1
 466 525 l 1,16,-1
 475 615 l 1,17,-1
 254 615 l 1,18,-1
 232 407 l 1,19,-1
 407 407 l 1,20,-1
 398 317 l 1,21,-1
 223 317 l 1,22,-1
 198 85 l 1,23,-1
 459 85 l 1,24,-1
 486 340 l 1,25,-1
 609 407 l 1,26,-1
 667 407 l 1,0,-1
EndSplineSet
EndChar

StartChar: quotesingle
Encoding: 39 39 10
Width: 250
GlyphClass: 2
Flags: W
LayerCount: 2
Fore
SplineSet
136 438 m 1,0,-1
 146 730 l 1,1,-1
 256 730 l 1,2,-1
 206 438 l 1,3,-1
 136 438 l 1,0,-1
EndSplineSet
EndChar

StartChar: parenleft
Encoding: 40 40 11
Width: 363
GlyphClass: 2
Flags: W
LayerCount: 2
Fore
SplineSet
239 660 m 1,0,-1
 156 -130 l 1,1,-1
 289 -130 l 1,2,-1
 281 -200 l 1,3,-1
 184 -200 l 1,4,-1
 76 -133 l 1,5,-1
 159 663 l 1,6,-1
 282 730 l 1,7,-1
 379 730 l 1,8,-1
 372 660 l 1,9,-1
 239 660 l 1,0,-1
EndSplineSet
EndChar

StartChar: parenright
Encoding: 41 41 12
Width: 363
GlyphClass: 2
Flags: W
LayerCount: 2
Fore
SplineSet
179 -130 m 1,0,-1
 262 660 l 1,1,-1
 129 660 l 1,2,-1
 136 730 l 1,3,-1
 233 730 l 1,4,-1
 342 663 l 1,5,-1
 259 -133 l 1,6,-1
 135 -200 l 1,7,-1
 38 -200 l 1,8,-1
 46 -130 l 1,9,-1
 179 -130 l 1,0,-1
EndSplineSet
EndChar

StartChar: asterisk
Encoding: 42 42 13
Width: 630
GlyphClass: 2
Flags: W
LayerCount: 2
Fore
SplineSet
336 524 m 1,0,-1
 345 710 l 1,1,-1
 433 710 l 1,2,-1
 404 524 l 1,3,-1
 584 591 l 1,4,-1
 603 508 l 1,5,-1
 419 460 l 1,6,-1
 520 317 l 1,7,-1
 443 264 l 1,8,-1
 358 418 l 1,9,-1
 241 264 l 1,10,-1
 176 317 l 1,11,-1
 307 460 l 1,12,-1
 133 508 l 1,13,-1
 170 591 l 1,14,-1
 336 524 l 1,0,-1
EndSplineSet
EndChar

StartChar: plus
Encoding: 43 43 14
Width: 600
GlyphClass: 2
Flags: W
LayerCount: 2
Fore
SplineSet
81 297 m 1,0,-1
 284 297 l 1,1,-1
 305 500 l 1,2,-1
 399 500 l 1,3,-1
 378 297 l 1,4,-1
 581 297 l 1,5,-1
 571 203 l 1,6,-1
 368 203 l 1,7,-1
 347 0 l 1,8,-1
 253 0 l 1,9,-1
 274 203 l 1,10,-1
 71 203 l 1,11,-1
 81 297 l 1,0,-1
EndSplineSet
EndChar

StartChar: comma
Encoding: 44 44 15
Width: 350
GlyphClass: 2
Flags: W
LayerCount: 2
Fore
SplineSet
78 -200 m 1,0,-1
 115 150 l 1,1,-1
 265 150 l 1,2,-1
 261 108 l 1,3,-1
 120 -200 l 1,4,-1
 78 -200 l 1,0,-1
EndSplineSet
EndChar

StartChar: hyphen
Encoding: 45 45 16
Width: 438
GlyphClass: 2
Flags: W
LayerCount: 2
Fore
SplineSet
92 218 m 1,0,-1
 102 305 l 1,1,-1
 400 305 l 1,2,-1
 390 218 l 1,3,-1
 92 218 l 1,0,-1
EndSplineSet
EndChar

StartChar: period
Encoding: 46 46 17
Width: 350
GlyphClass: 2
Flags: W
LayerCount: 2
Fore
SplineSet
100 0 m 1,0,-1
 115 150 l 1,1,-1
 265 150 l 1,2,-1
 250 0 l 1,3,-1
 100 0 l 1,0,-1
EndSplineSet
EndChar

StartChar: slash
Encoding: 47 47 18
Width: 386
GlyphClass: 2
Flags: W
LayerCount: 2
Fore
SplineSet
27 -20 m 1,0,-1
 341 720 l 1,1,-1
 431 720 l 1,2,-1
 117 -20 l 1,3,-1
 27 -20 l 1,0,-1
EndSplineSet
EndChar

StartChar: zero
Encoding: 48 48 19
Width: 665
GlyphClass: 2
Flags: W
LayerCount: 2
Fore
SplineSet
581 62 m 1,0,-1
 458 -5 l 1,1,-1
 205 -5 l 1,2,-1
 96 62 l 1,3,-1
 157 638 l 1,4,-1
 280 705 l 1,5,-1
 533 705 l 1,6,-1
 642 638 l 1,7,-1
 581 62 l 1,0,-1
254 615 m 1,8,-1
 198 85 l 1,9,-1
 483 85 l 1,10,-1
 539 615 l 1,11,-1
 254 615 l 1,8,-1
EndSplineSet
EndChar

StartChar: one
Encoding: 49 49 20
Width: 570
GlyphClass: 2
Flags: W
LayerCount: 2
Fore
SplineSet
141 490 m 1,0,-1
 152 591 l 1,1,-1
 353 700 l 1,2,-1
 433 700 l 1,3,-1
 369 90 l 1,4,-1
 539 90 l 1,5,-1
 530 0 l 1,6,-1
 90 0 l 1,7,-1
 99 90 l 1,8,-1
 269 90 l 1,9,-1
 321 588 l 1,10,-1
 141 490 l 1,0,-1
EndSplineSet
EndChar

StartChar: two
Encoding: 50 50 21
Width: 630
GlyphClass: 2
Flags: W
LayerCount: 2
Fore
SplineSet
199 90 m 1,0,-1
 549 90 l 1,1,-1
 540 0 l 1,2,-1
 90 0 l 1,3,-1
 123 314 l 1,4,-1
 246 381 l 1,5,-1
 480 381 l 1,6,-1
 504 610 l 1,7,-1
 254 610 l 1,8,-1
 244 520 l 1,9,-1
 144 520 l 1,10,-1
 156 633 l 1,11,-1
 279 700 l 1,12,-1
 497 700 l 1,13,-1
 606 633 l 1,14,-1
 577 358 l 1,15,-1
 454 291 l 1,16,-1
 220 291 l 1,17,-1
 199 90 l 1,0,-1
EndSplineSet
EndChar

StartChar: three
Encoding: 51 51 22
Width: 651
GlyphClass: 2
Flags: W
LayerCount: 2
Fore
SplineSet
444 -5 m 1,0,-1
 205 -5 l 1,1,-1
 96 62 l 1,2,-1
 108 175 l 1,3,-1
 208 175 l 1,4,-1
 198 85 l 1,5,-1
 469 85 l 1,6,-1
 494 317 l 1,7,-1
 289 317 l 1,8,-1
 298 407 l 1,9,-1
 503 407 l 1,10,-1
 525 615 l 1,11,-1
 254 615 l 1,12,-1
 245 525 l 1,13,-1
 145 525 l 1,14,-1
 157 638 l 1,15,-1
 280 705 l 1,16,-1
 519 705 l 1,17,-1
 628 638 l 1,18,-1
 604 413 l 1,19,-1
 512 363 l 1,20,-1
 511 361 l 1,21,-1
 593 311 l 1,22,-1
 567 62 l 1,23,-1
 444 -5 l 1,0,-1
EndSplineSet
EndChar

StartChar: four
Encoding: 52 52 23
Width: 624
GlyphClass: 2
Flags: W
LayerCount: 2
Fore
SplineSet
501 162 m 1,0,-1
 484 0 l 1,1,-1
 386 0 l 1,2,-1
 403 162 l 1,3,-1
 57 162 l 1,4,-1
 66 248 l 1,5,-1
 465 700 l 1,6,-1
 557 700 l 1,7,-1
 510 249 l 1,8,-1
 600 249 l 1,9,-1
 591 162 l 1,10,-1
 501 162 l 1,0,-1
170 249 m 1,11,-1
 412 249 l 1,12,-1
 444 557 l 1,13,-1
 442 557 l 1,14,-1
 170 251 l 1,15,-1
 170 249 l 1,11,-1
EndSplineSet
EndChar

StartChar: five
Encoding: 53 53 24
Width: 645
GlyphClass: 2
Flags: W
LayerCount: 2
Fore
SplineSet
274 610 m 1,0,-1
 255 431 l 1,1,-1
 484 431 l 1,2,-1
 593 364 l 1,3,-1
 561 62 l 1,4,-1
 438 -5 l 1,5,-1
 205 -5 l 1,6,-1
 96 62 l 1,7,-1
 108 175 l 1,8,-1
 208 175 l 1,9,-1
 198 85 l 1,10,-1
 463 85 l 1,11,-1
 490 341 l 1,12,-1
 145 341 l 1,13,-1
 183 700 l 1,14,-1
 618 700 l 1,15,-1
 609 610 l 1,16,-1
 274 610 l 1,0,-1
EndSplineSet
EndChar

StartChar: six
Encoding: 54 54 25
Width: 635
GlyphClass: 2
Flags: W
LayerCount: 2
Fore
SplineSet
254 615 m 1,0,-1
 228 369 l 1,1,-1
 304 410 l 1,2,-1
 472 410 l 1,3,-1
 581 343 l 1,4,-1
 551 62 l 1,5,-1
 428 -5 l 1,6,-1
 205 -5 l 1,7,-1
 96 62 l 1,8,-1
 157 638 l 1,9,-1
 280 705 l 1,10,-1
 503 705 l 1,11,-1
 612 638 l 1,12,-1
 600 525 l 1,13,-1
 500 525 l 1,14,-1
 509 615 l 1,15,-1
 254 615 l 1,0,-1
223 320 m 1,16,-1
 198 85 l 1,17,-1
 453 85 l 1,18,-1
 478 320 l 1,19,-1
 223 320 l 1,16,-1
EndSplineSet
EndChar

StartChar: seven
Encoding: 55 55 26
Width: 615
GlyphClass: 2
Flags: W
LayerCount: 2
Fore
SplineSet
273 0 m 1,0,-1
 167 0 l 1,1,-1
 509 608 l 1,2,-1
 510 610 l 1,3,-1
 224 610 l 1,4,-1
 214 520 l 1,5,-1
 114 520 l 1,6,-1
 133 700 l 1,7,-1
 638 700 l 1,8,-1
 632 640 l 1,9,-1
 273 0 l 1,0,-1
EndSplineSet
EndChar

StartChar: eight
Encoding: 56 56 27
Width: 645
GlyphClass: 2
Flags: W
LayerCount: 2
Fore
SplineSet
198 85 m 1,0,-1
 463 85 l 1,1,-1
 488 317 l 1,2,-1
 223 317 l 1,3,-1
 198 85 l 1,0,-1
232 407 m 1,4,-1
 497 407 l 1,5,-1
 519 615 l 1,6,-1
 254 615 l 1,7,-1
 232 407 l 1,4,-1
438 -5 m 1,8,-1
 189 -5 l 1,9,-1
 96 62 l 1,10,-1
 122 311 l 1,11,-1
 214 361 l 1,12,-1
 215 363 l 1,13,-1
 133 413 l 1,14,-1
 157 638 l 1,15,-1
 280 705 l 1,16,-1
 513 705 l 1,17,-1
 622 638 l 1,18,-1
 598 413 l 1,19,-1
 506 363 l 1,20,-1
 505 361 l 1,21,-1
 587 311 l 1,22,-1
 561 62 l 1,23,-1
 438 -5 l 1,8,-1
EndSplineSet
EndChar

StartChar: nine
Encoding: 57 57 28
Width: 635
GlyphClass: 2
Flags: W
LayerCount: 2
Fore
SplineSet
453 85 m 1,0,-1
 479 331 l 1,1,-1
 404 290 l 1,2,-1
 236 290 l 1,3,-1
 127 357 l 1,4,-1
 157 638 l 1,5,-1
 280 705 l 1,6,-1
 503 705 l 1,7,-1
 612 638 l 1,8,-1
 551 62 l 1,9,-1
 428 -5 l 1,10,-1
 205 -5 l 1,11,-1
 96 62 l 1,12,-1
 108 175 l 1,13,-1
 208 175 l 1,14,-1
 198 85 l 1,15,-1
 453 85 l 1,0,-1
484 380 m 1,16,-1
 509 615 l 1,17,-1
 254 615 l 1,18,-1
 229 380 l 1,19,-1
 484 380 l 1,16,-1
EndSplineSet
EndChar

StartChar: colon
Encoding: 58 58 29
Width: 350
GlyphClass: 2
Flags: W
LayerCount: 2
Fore
SplineSet
100 0 m 1,0,-1
 115 150 l 1,1,-1
 265 150 l 1,2,-1
 250 0 l 1,3,-1
 100 0 l 1,0,-1
136 350 m 1,4,-1
 152 500 l 1,5,-1
 302 500 l 1,6,-1
 286 350 l 1,7,-1
 136 350 l 1,4,-1
EndSplineSet
EndChar

StartChar: semicolon
Encoding: 59 59 30
Width: 350
GlyphClass: 2
Flags: W
LayerCount: 2
Fore
SplineSet
136 350 m 1,0,-1
 152 500 l 1,1,-1
 302 500 l 1,2,-1
 286 350 l 1,3,-1
 136 350 l 1,0,-1
78 -200 m 1,4,-1
 115 150 l 1,5,-1
 265 150 l 1,6,-1
 261 108 l 1,7,-1
 120 -200 l 1,8,-1
 78 -200 l 1,4,-1
EndSplineSet
EndChar

StartChar: less
Encoding: 60 60 31
Width: 650
GlyphClass: 2
Flags: W
LayerCount: 2
Fore
SplineSet
612 501 m 1,0,-1
 602 407 l 1,1,-1
 183 251 l 1,2,-1
 183 249 l 1,3,-1
 569 93 l 1,4,-1
 559 -1 l 1,5,-1
 80 199 l 1,6,-1
 91 301 l 1,7,-1
 612 501 l 1,0,-1
EndSplineSet
EndChar

StartChar: equal
Encoding: 61 61 32
Width: 680
GlyphClass: 2
Flags: W
LayerCount: 2
Fore
SplineSet
609 183 m 1,0,-1
 599 89 l 1,1,-1
 99 89 l 1,2,-1
 109 183 l 1,3,-1
 609 183 l 1,0,-1
633 411 m 1,4,-1
 623 317 l 1,5,-1
 123 317 l 1,6,-1
 133 411 l 1,7,-1
 633 411 l 1,4,-1
EndSplineSet
EndChar

StartChar: greater
Encoding: 62 62 33
Width: 650
GlyphClass: 2
Flags: W
LayerCount: 2
Fore
SplineSet
132 407 m 1,0,-1
 142 501 l 1,1,-1
 621 301 l 1,2,-1
 610 199 l 1,3,-1
 89 -1 l 1,4,-1
 99 93 l 1,5,-1
 519 249 l 1,6,-1
 519 251 l 1,7,-1
 132 407 l 1,0,-1
EndSplineSet
EndChar

StartChar: question
Encoding: 63 63 34
Width: 580
GlyphClass: 2
Flags: W
LayerCount: 2
Fore
SplineSet
338 391 m 1,0,-1
 316 268 l 1,1,-1
 236 268 l 1,2,-1
 241 414 l 1,3,-1
 364 481 l 1,4,-1
 440 481 l 1,5,-1
 457 640 l 1,6,-1
 257 640 l 1,7,-1
 247 550 l 1,8,-1
 147 550 l 1,9,-1
 159 663 l 1,10,-1
 282 730 l 1,11,-1
 450 730 l 1,12,-1
 559 663 l 1,13,-1
 538 458 l 1,14,-1
 415 391 l 1,15,-1
 338 391 l 1,0,-1
173 0 m 1,16,-1
 188 150 l 1,17,-1
 338 150 l 1,18,-1
 323 0 l 1,19,-1
 173 0 l 1,16,-1
EndSplineSet
EndChar

StartChar: at
Encoding: 64 64 35
Width: 1010
GlyphClass: 2
Flags: W
LayerCount: 2
Fore
SplineSet
789 -141 m 1,0,-1
 191 -141 l 1,1,-1
 82 -74 l 1,2,-1
 157 638 l 1,3,-1
 280 705 l 1,4,-1
 878 705 l 1,5,-1
 987 638 l 1,6,-1
 930 104 l 1,7,-1
 807 37 l 1,8,-1
 638 37 l 1,9,-1
 577 78 l 1,10,-1
 496 37 l 1,11,-1
 395 37 l 1,12,-1
 293 104 l 1,13,-1
 371 470 l 1,14,-1
 501 537 l 1,15,-1
 602 537 l 1,16,-1
 664 496 l 1,17,-1
 744 537 l 1,18,-1
 770 537 l 1,19,-1
 682 117 l 1,20,-1
 842 117 l 1,21,-1
 895 625 l 1,22,-1
 245 625 l 1,23,-1
 173 -61 l 1,24,-1
 797 -61 l 1,25,-1
 789 -141 l 1,0,-1
464 450 m 1,26,-1
 395 124 l 1,27,-1
 586 124 l 1,28,-1
 655 450 l 1,29,-1
 464 450 l 1,26,-1
EndSplineSet
EndChar

StartChar: A
Encoding: 65 65 36
Width: 664
GlyphClass: 2
Flags: W
LayerCount: 2
Fore
SplineSet
467 700 m 1,0,-1
 644 0 l 1,1,-1
 546 0 l 1,2,-1
 504 166 l 1,3,-1
 194 166 l 1,4,-1
 118 0 l 1,5,-1
 20 0 l 1,6,-1
 343 700 l 1,7,-1
 467 700 l 1,0,-1
394 601 m 1,8,-1
 235 256 l 1,9,-1
 481 256 l 1,10,-1
 396 601 l 1,11,-1
 394 601 l 1,8,-1
EndSplineSet
EndChar

StartChar: B
Encoding: 66 66 37
Width: 655
GlyphClass: 2
Flags: W
LayerCount: 2
Fore
SplineSet
608 413 m 1,0,-1
 516 363 l 1,1,-1
 515 361 l 1,2,-1
 597 311 l 1,3,-1
 572 67 l 1,4,-1
 449 0 l 1,5,-1
 90 0 l 1,6,-1
 163 700 l 1,7,-1
 522 700 l 1,8,-1
 631 633 l 1,9,-1
 608 413 l 1,0,-1
223 317 m 1,10,-1
 199 90 l 1,11,-1
 474 90 l 1,12,-1
 498 317 l 1,13,-1
 223 317 l 1,10,-1
254 610 m 1,14,-1
 232 407 l 1,15,-1
 507 407 l 1,16,-1
 529 610 l 1,17,-1
 254 610 l 1,14,-1
EndSplineSet
EndChar

StartChar: C
Encoding: 67 67 38
Width: 665
GlyphClass: 2
Flags: W
LayerCount: 2
Fore
SplineSet
503 175 m 1,0,-1
 603 175 l 1,1,-1
 591 62 l 1,2,-1
 468 -5 l 1,3,-1
 205 -5 l 1,4,-1
 96 62 l 1,5,-1
 157 638 l 1,6,-1
 280 705 l 1,7,-1
 543 705 l 1,8,-1
 652 638 l 1,9,-1
 640 525 l 1,10,-1
 540 525 l 1,11,-1
 549 615 l 1,12,-1
 254 615 l 1,13,-1
 198 85 l 1,14,-1
 493 85 l 1,15,-1
 503 175 l 1,0,-1
EndSplineSet
EndChar

StartChar: D
Encoding: 68 68 39
Width: 705
GlyphClass: 2
Flags: W
LayerCount: 2
Fore
SplineSet
622 67 m 1,0,-1
 499 0 l 1,1,-1
 90 0 l 1,2,-1
 163 700 l 1,3,-1
 572 700 l 1,4,-1
 681 633 l 1,5,-1
 622 67 l 1,0,-1
254 610 m 1,6,-1
 199 90 l 1,7,-1
 524 90 l 1,8,-1
 579 610 l 1,9,-1
 254 610 l 1,6,-1
EndSplineSet
EndChar

StartChar: E
Encoding: 69 69 40
Width: 539
GlyphClass: 2
Flags: W
LayerCount: 2
Fore
SplineSet
223 315 m 1,0,-1
 199 90 l 1,1,-1
 498 90 l 1,2,-1
 489 0 l 1,3,-1
 90 0 l 1,4,-1
 163 700 l 1,5,-1
 562 700 l 1,6,-1
 553 610 l 1,7,-1
 254 610 l 1,8,-1
 232 405 l 1,9,-1
 471 405 l 1,10,-1
 462 315 l 1,11,-1
 223 315 l 1,0,-1
EndSplineSet
EndChar

StartChar: F
Encoding: 70 70 41
Width: 529
GlyphClass: 2
Flags: W
LayerCount: 2
Fore
SplineSet
223 315 m 1,0,-1
 190 0 l 1,1,-1
 90 0 l 1,2,-1
 163 700 l 1,3,-1
 572 700 l 1,4,-1
 563 610 l 1,5,-1
 254 610 l 1,6,-1
 232 405 l 1,7,-1
 481 405 l 1,8,-1
 472 315 l 1,9,-1
 223 315 l 1,0,-1
EndSplineSet
EndChar

StartChar: G
Encoding: 71 71 42
Width: 675
GlyphClass: 2
Flags: W
LayerCount: 2
Fore
SplineSet
397 260 m 1,0,-1
 406 350 l 1,1,-1
 621 350 l 1,2,-1
 591 62 l 1,3,-1
 468 -5 l 1,4,-1
 205 -5 l 1,5,-1
 96 62 l 1,6,-1
 157 638 l 1,7,-1
 280 705 l 1,8,-1
 543 705 l 1,9,-1
 652 638 l 1,10,-1
 640 525 l 1,11,-1
 540 525 l 1,12,-1
 549 615 l 1,13,-1
 254 615 l 1,14,-1
 198 85 l 1,15,-1
 493 85 l 1,16,-1
 512 260 l 1,17,-1
 397 260 l 1,0,-1
EndSplineSet
EndChar

StartChar: H
Encoding: 72 72 43
Width: 715
GlyphClass: 2
Flags: W
LayerCount: 2
Fore
SplineSet
223 315 m 1,0,-1
 190 0 l 1,1,-1
 90 0 l 1,2,-1
 163 700 l 1,3,-1
 263 700 l 1,4,-1
 232 405 l 1,5,-1
 567 405 l 1,6,-1
 598 700 l 1,7,-1
 698 700 l 1,8,-1
 625 0 l 1,9,-1
 525 0 l 1,10,-1
 558 315 l 1,11,-1
 223 315 l 1,0,-1
EndSplineSet
EndChar

StartChar: I
Encoding: 73 73 44
Width: 280
GlyphClass: 2
Flags: W
LayerCount: 2
Fore
SplineSet
90 0 m 1,0,-1
 163 700 l 1,1,-1
 263 700 l 1,2,-1
 190 0 l 1,3,-1
 90 0 l 1,0,-1
EndSplineSet
EndChar

StartChar: J
Encoding: 74 74 45
Width: 535
GlyphClass: 2
Flags: W
LayerCount: 2
Fore
SplineSet
353 85 m 1,0,-1
 418 700 l 1,1,-1
 518 700 l 1,2,-1
 451 62 l 1,3,-1
 328 -5 l 1,4,-1
 135 -5 l 1,5,-1
 26 62 l 1,6,-1
 43 225 l 1,7,-1
 143 225 l 1,8,-1
 128 85 l 1,9,-1
 353 85 l 1,0,-1
EndSplineSet
EndChar

StartChar: K
Encoding: 75 75 46
Width: 663
GlyphClass: 2
Flags: W
LayerCount: 2
Fore
SplineSet
90 0 m 1,0,-1
 163 700 l 1,1,-1
 263 700 l 1,2,-1
 224 330 l 1,3,-1
 226 330 l 1,4,-1
 574 700 l 1,5,-1
 694 700 l 1,6,-1
 385 373 l 1,7,-1
 653 0 l 1,8,-1
 531 0 l 1,9,-1
 316 301 l 1,10,-1
 209 188 l 1,11,-1
 190 0 l 1,12,-1
 90 0 l 1,0,-1
EndSplineSet
EndChar

StartChar: L
Encoding: 76 76 47
Width: 479
GlyphClass: 2
Flags: W
LayerCount: 2
Fore
SplineSet
90 0 m 1,0,-1
 163 700 l 1,1,-1
 263 700 l 1,2,-1
 199 90 l 1,3,-1
 458 90 l 1,4,-1
 449 0 l 1,5,-1
 90 0 l 1,0,-1
EndSplineSet
EndChar

StartChar: M
Encoding: 77 77 48
Width: 885
GlyphClass: 2
Flags: W
LayerCount: 2
Fore
SplineSet
700 0 m 1,0,-1
 759 570 l 1,1,-1
 757 570 l 1,2,-1
 492 0 l 1,3,-1
 392 0 l 1,4,-1
 246 570 l 1,5,-1
 244 570 l 1,6,-1
 185 0 l 1,7,-1
 90 0 l 1,8,-1
 163 700 l 1,9,-1
 304 700 l 1,10,-1
 453 116 l 1,11,-1
 455 116 l 1,12,-1
 727 700 l 1,13,-1
 868 700 l 1,14,-1
 795 0 l 1,15,-1
 700 0 l 1,0,-1
EndSplineSet
EndChar

StartChar: N
Encoding: 78 78 49
Width: 735
GlyphClass: 2
Flags: W
LayerCount: 2
Fore
SplineSet
245 529 m 1,0,-1
 190 0 l 1,1,-1
 90 0 l 1,2,-1
 163 700 l 1,3,-1
 254 700 l 1,4,-1
 560 171 l 1,5,-1
 562 171 l 1,6,-1
 618 700 l 1,7,-1
 718 700 l 1,8,-1
 645 0 l 1,9,-1
 554 0 l 1,10,-1
 247 529 l 1,11,-1
 245 529 l 1,0,-1
EndSplineSet
EndChar

StartChar: O
Encoding: 79 79 50
Width: 705
GlyphClass: 2
Flags: W
LayerCount: 2
Fore
SplineSet
621 62 m 1,0,-1
 498 -5 l 1,1,-1
 205 -5 l 1,2,-1
 96 62 l 1,3,-1
 157 638 l 1,4,-1
 280 705 l 1,5,-1
 573 705 l 1,6,-1
 682 638 l 1,7,-1
 621 62 l 1,0,-1
254 615 m 1,8,-1
 198 85 l 1,9,-1
 523 85 l 1,10,-1
 579 615 l 1,11,-1
 254 615 l 1,8,-1
EndSplineSet
EndChar

StartChar: P
Encoding: 80 80 51
Width: 625
GlyphClass: 2
Flags: W
LayerCount: 2
Fore
SplineSet
90 0 m 1,0,-1
 163 700 l 1,1,-1
 512 700 l 1,2,-1
 621 633 l 1,3,-1
 590 336 l 1,4,-1
 467 269 l 1,5,-1
 218 269 l 1,6,-1
 190 0 l 1,7,-1
 90 0 l 1,0,-1
254 610 m 1,8,-1
 227 359 l 1,9,-1
 492 359 l 1,10,-1
 519 610 l 1,11,-1
 254 610 l 1,8,-1
EndSplineSet
EndChar

StartChar: Q
Encoding: 81 81 52
Width: 705
GlyphClass: 2
Flags: W
LayerCount: 2
Fore
SplineSet
254 615 m 1,0,-1
 198 85 l 1,1,-1
 523 85 l 1,2,-1
 579 615 l 1,3,-1
 254 615 l 1,0,-1
390 -5 m 1,4,-1
 205 -5 l 1,5,-1
 96 62 l 1,6,-1
 157 638 l 1,7,-1
 280 705 l 1,8,-1
 573 705 l 1,9,-1
 682 638 l 1,10,-1
 621 62 l 1,11,-1
 498 -5 l 1,12,-1
 590 -200 l 1,13,-1
 479 -200 l 1,14,-1
 390 -5 l 1,4,-1
EndSplineSet
EndChar

StartChar: R
Encoding: 82 82 53
Width: 655
GlyphClass: 2
Flags: W
LayerCount: 2
Fore
SplineSet
370 279 m 1,0,-1
 219 279 l 1,1,-1
 190 0 l 1,2,-1
 90 0 l 1,3,-1
 163 700 l 1,4,-1
 522 700 l 1,5,-1
 631 633 l 1,6,-1
 601 346 l 1,7,-1
 478 279 l 1,8,-1
 610 0 l 1,9,-1
 499 0 l 1,10,-1
 370 279 l 1,0,-1
254 610 m 1,11,-1
 228 369 l 1,12,-1
 503 369 l 1,13,-1
 529 610 l 1,14,-1
 254 610 l 1,11,-1
EndSplineSet
EndChar

StartChar: S
Encoding: 83 83 54
Width: 645
GlyphClass: 2
Flags: W
LayerCount: 2
Fore
SplineSet
128 370 m 1,0,-1
 157 638 l 1,1,-1
 280 705 l 1,2,-1
 513 705 l 1,3,-1
 622 638 l 1,4,-1
 611 535 l 1,5,-1
 511 535 l 1,6,-1
 519 615 l 1,7,-1
 254 615 l 1,8,-1
 232 403 l 1,9,-1
 481 403 l 1,10,-1
 590 336 l 1,11,-1
 561 62 l 1,12,-1
 438 -5 l 1,13,-1
 195 -5 l 1,14,-1
 86 62 l 1,15,-1
 97 165 l 1,16,-1
 197 165 l 1,17,-1
 188 85 l 1,18,-1
 463 85 l 1,19,-1
 486 303 l 1,20,-1
 237 303 l 1,21,-1
 128 370 l 1,0,-1
EndSplineSet
EndChar

StartChar: T
Encoding: 84 84 55
Width: 558
GlyphClass: 2
Flags: W
LayerCount: 2
Fore
SplineSet
393 610 m 1,0,-1
 329 0 l 1,1,-1
 229 0 l 1,2,-1
 293 610 l 1,3,-1
 94 610 l 1,4,-1
 103 700 l 1,5,-1
 601 700 l 1,6,-1
 592 610 l 1,7,-1
 393 610 l 1,0,-1
EndSplineSet
EndChar

StartChar: U
Encoding: 85 85 56
Width: 705
GlyphClass: 2
Flags: W
LayerCount: 2
Fore
SplineSet
588 700 m 1,0,-1
 688 700 l 1,1,-1
 621 62 l 1,2,-1
 498 -5 l 1,3,-1
 205 -5 l 1,4,-1
 96 62 l 1,5,-1
 163 700 l 1,6,-1
 263 700 l 1,7,-1
 199 95 l 1,8,-1
 524 95 l 1,9,-1
 588 700 l 1,0,-1
EndSplineSet
EndChar

StartChar: V
Encoding: 86 86 57
Width: 664
GlyphClass: 2
Flags: W
LayerCount: 2
Fore
SplineSet
717 700 m 1,0,-1
 394 0 l 1,1,-1
 270 0 l 1,2,-1
 93 700 l 1,3,-1
 194 700 l 1,4,-1
 341 103 l 1,5,-1
 343 103 l 1,6,-1
 616 700 l 1,7,-1
 717 700 l 1,0,-1
EndSplineSet
EndChar

StartChar: W
Encoding: 87 87 58
Width: 956
GlyphClass: 2
Flags: W
LayerCount: 2
Fore
SplineSet
999 700 m 1,0,-1
 746 0 l 1,1,-1
 627 0 l 1,2,-1
 537 561 l 1,3,-1
 535 561 l 1,4,-1
 329 0 l 1,5,-1
 210 0 l 1,6,-1
 103 700 l 1,7,-1
 200 700 l 1,8,-1
 282 128 l 1,9,-1
 284 128 l 1,10,-1
 495 700 l 1,11,-1
 607 700 l 1,12,-1
 697 128 l 1,13,-1
 699 128 l 1,14,-1
 902 700 l 1,15,-1
 999 700 l 1,0,-1
EndSplineSet
EndChar

StartChar: X
Encoding: 88 88 59
Width: 651
GlyphClass: 2
Flags: W
LayerCount: 2
Fore
SplineSet
30 0 m 1,0,-1
 307 357 l 1,1,-1
 113 700 l 1,2,-1
 225 700 l 1,3,-1
 371 440 l 1,4,-1
 572 700 l 1,5,-1
 684 700 l 1,6,-1
 417 357 l 1,7,-1
 621 0 l 1,8,-1
 509 0 l 1,9,-1
 353 275 l 1,10,-1
 142 0 l 1,11,-1
 30 0 l 1,0,-1
EndSplineSet
EndChar

StartChar: Y
Encoding: 89 89 60
Width: 611
GlyphClass: 2
Flags: W
LayerCount: 2
Fore
SplineSet
255 0 m 1,0,-1
 287 309 l 1,1,-1
 93 700 l 1,2,-1
 205 700 l 1,3,-1
 346 402 l 1,4,-1
 348 402 l 1,5,-1
 552 700 l 1,6,-1
 664 700 l 1,7,-1
 387 308 l 1,8,-1
 355 0 l 1,9,-1
 255 0 l 1,0,-1
EndSplineSet
EndChar

StartChar: Z
Encoding: 90 90 61
Width: 585
GlyphClass: 2
Flags: W
LayerCount: 2
Fore
SplineSet
134 610 m 1,0,-1
 143 700 l 1,1,-1
 598 700 l 1,2,-1
 592 640 l 1,3,-1
 189 92 l 1,4,-1
 189 90 l 1,5,-1
 534 90 l 1,6,-1
 525 0 l 1,7,-1
 50 0 l 1,8,-1
 56 60 l 1,9,-1
 458 608 l 1,10,-1
 459 610 l 1,11,-1
 134 610 l 1,0,-1
EndSplineSet
EndChar

StartChar: bracketleft
Encoding: 91 91 62
Width: 363
GlyphClass: 2
Flags: W
LayerCount: 2
Fore
SplineSet
239 660 m 1,0,-1
 156 -130 l 1,1,-1
 289 -130 l 1,2,-1
 281 -200 l 1,3,-1
 68 -200 l 1,4,-1
 166 730 l 1,5,-1
 379 730 l 1,6,-1
 372 660 l 1,7,-1
 239 660 l 1,0,-1
EndSplineSet
EndChar

StartChar: backslash
Encoding: 92 92 63
Width: 386
GlyphClass: 2
Flags: W
LayerCount: 2
Fore
SplineSet
195 720 m 1,0,-1
 353 -20 l 1,1,-1
 263 -20 l 1,2,-1
 105 720 l 1,3,-1
 195 720 l 1,0,-1
EndSplineSet
EndChar

StartChar: bracketright
Encoding: 93 93 64
Width: 363
GlyphClass: 2
Flags: W
LayerCount: 2
Fore
SplineSet
179 -130 m 1,0,-1
 262 660 l 1,1,-1
 129 660 l 1,2,-1
 136 730 l 1,3,-1
 349 730 l 1,4,-1
 251 -200 l 1,5,-1
 38 -200 l 1,6,-1
 46 -130 l 1,7,-1
 179 -130 l 1,0,-1
EndSplineSet
EndChar

StartChar: asciicircum
Encoding: 94 94 65
Width: 602
GlyphClass: 2
Flags: W
LayerCount: 2
Fore
SplineSet
196 380 m 1,0,-1
 89 380 l 1,1,-1
 323 700 l 1,2,-1
 425 700 l 1,3,-1
 591 380 l 1,4,-1
 484 380 l 1,5,-1
 366 613 l 1,6,-1
 365 613 l 1,7,-1
 196 380 l 1,0,-1
EndSplineSet
EndChar

StartChar: underscore
Encoding: 95 95 66
Width: 612
GlyphClass: 2
Flags: W
LayerCount: 2
Fore
SplineSet
619 -116 m 1,0,-1
 610 -200 l 1,1,-1
 -41 -200 l 1,2,-1
 -32 -116 l 1,3,-1
 619 -116 l 1,0,-1
EndSplineSet
EndChar

StartChar: grave
Encoding: 96 96 67
Width: 500
GlyphClass: 2
Flags: W
LayerCount: 2
Fore
SplineSet
390 718 m 1,0,-1
 471 590 l 1,1,-1
 391 590 l 1,2,-1
 260 718 l 1,3,-1
 390 718 l 1,0,-1
EndSplineSet
EndChar

StartChar: a
Encoding: 97 97 68
Width: 575
GlyphClass: 2
Flags: W
LayerCount: 2
Fore
SplineSet
220 418 m 1,0,-1
 185 82 l 1,1,-1
 406 82 l 1,2,-1
 441 418 l 1,3,-1
 220 418 l 1,0,-1
548 505 m 1,4,-1
 494 -5 l 1,5,-1
 468 -5 l 1,6,-1
 401 36 l 1,7,-1
 326 -5 l 1,8,-1
 195 -5 l 1,9,-1
 86 62 l 1,10,-1
 126 438 l 1,11,-1
 249 505 l 1,12,-1
 380 505 l 1,13,-1
 446 464 l 1,14,-1
 522 505 l 1,15,-1
 548 505 l 1,4,-1
EndSplineSet
EndChar

StartChar: b
Encoding: 98 98 69
Width: 595
GlyphClass: 2
Flags: W
LayerCount: 2
Fore
SplineSet
301 505 m 1,0,-1
 452 505 l 1,1,-1
 561 438 l 1,2,-1
 521 62 l 1,3,-1
 398 -5 l 1,4,-1
 247 -5 l 1,5,-1
 180 36 l 1,6,-1
 105 -5 l 1,7,-1
 79 -5 l 1,8,-1
 156 730 l 1,9,-1
 253 730 l 1,10,-1
 225 464 l 1,11,-1
 301 505 l 1,0,-1
220 418 m 1,12,-1
 185 82 l 1,13,-1
 426 82 l 1,14,-1
 461 418 l 1,15,-1
 220 418 l 1,12,-1
EndSplineSet
EndChar

StartChar: c
Encoding: 99 99 70
Width: 515
GlyphClass: 2
Flags: W
LayerCount: 2
Fore
SplineSet
220 413 m 1,0,-1
 186 87 l 1,1,-1
 464 87 l 1,2,-1
 455 0 l 1,3,-1
 196 0 l 1,4,-1
 87 67 l 1,5,-1
 125 433 l 1,6,-1
 248 500 l 1,7,-1
 507 500 l 1,8,-1
 498 413 l 1,9,-1
 220 413 l 1,0,-1
EndSplineSet
EndChar

StartChar: d
Encoding: 100 100 71
Width: 595
GlyphClass: 2
Flags: W
LayerCount: 2
Fore
SplineSet
249 505 m 1,0,-1
 400 505 l 1,1,-1
 466 464 l 1,2,-1
 494 730 l 1,3,-1
 591 730 l 1,4,-1
 514 -5 l 1,5,-1
 441 -5 l 1,6,-1
 421 36 l 1,7,-1
 346 -5 l 1,8,-1
 195 -5 l 1,9,-1
 86 62 l 1,10,-1
 126 438 l 1,11,-1
 249 505 l 1,0,-1
426 82 m 1,12,-1
 461 418 l 1,13,-1
 220 418 l 1,14,-1
 185 82 l 1,15,-1
 426 82 l 1,12,-1
EndSplineSet
EndChar

StartChar: e
Encoding: 101 101 72
Width: 555
GlyphClass: 2
Flags: W
LayerCount: 2
Fore
SplineSet
484 87 m 1,0,-1
 475 0 l 1,1,-1
 196 0 l 1,2,-1
 87 67 l 1,3,-1
 126 438 l 1,4,-1
 249 505 l 1,5,-1
 412 505 l 1,6,-1
 521 438 l 1,7,-1
 497 216 l 1,8,-1
 199 216 l 1,9,-1
 186 87 l 1,10,-1
 484 87 l 1,0,-1
220 418 m 1,11,-1
 208 303 l 1,12,-1
 409 303 l 1,13,-1
 421 418 l 1,14,-1
 220 418 l 1,11,-1
EndSplineSet
EndChar

StartChar: f
Encoding: 102 102 73
Width: 389
GlyphClass: 2
Flags: W
LayerCount: 2
Fore
SplineSet
83 413 m 1,0,-1
 92 500 l 1,1,-1
 184 500 l 1,2,-1
 201 663 l 1,3,-1
 324 730 l 1,4,-1
 425 730 l 1,5,-1
 416 643 l 1,6,-1
 296 643 l 1,7,-1
 281 500 l 1,8,-1
 401 500 l 1,9,-1
 392 413 l 1,10,-1
 272 413 l 1,11,-1
 229 0 l 1,12,-1
 132 0 l 1,13,-1
 175 413 l 1,14,-1
 83 413 l 1,0,-1
EndSplineSet
EndChar

StartChar: g
Encoding: 103 103 74
Width: 585
GlyphClass: 2
Flags: W
LayerCount: 2
Fore
SplineSet
532 505 m 1,0,-1
 558 505 l 1,1,-1
 491 -133 l 1,2,-1
 367 -200 l 1,3,-1
 108 -200 l 1,4,-1
 118 -113 l 1,5,-1
 396 -113 l 1,6,-1
 413 52 l 1,7,-1
 338 11 l 1,8,-1
 197 11 l 1,9,-1
 88 78 l 1,10,-1
 126 438 l 1,11,-1
 249 505 l 1,12,-1
 390 505 l 1,13,-1
 456 464 l 1,14,-1
 532 505 l 1,0,-1
187 98 m 1,15,-1
 418 98 l 1,16,-1
 451 418 l 1,17,-1
 220 418 l 1,18,-1
 187 98 l 1,15,-1
EndSplineSet
EndChar

StartChar: h
Encoding: 104 104 75
Width: 595
GlyphClass: 2
Flags: W
LayerCount: 2
Fore
SplineSet
177 0 m 1,0,-1
 80 0 l 1,1,-1
 156 730 l 1,2,-1
 253 730 l 1,3,-1
 225 464 l 1,4,-1
 301 505 l 1,5,-1
 452 505 l 1,6,-1
 561 438 l 1,7,-1
 515 0 l 1,8,-1
 418 0 l 1,9,-1
 461 418 l 1,10,-1
 220 418 l 1,11,-1
 177 0 l 1,0,-1
EndSplineSet
EndChar

StartChar: i
Encoding: 105 105 76
Width: 257
GlyphClass: 2
Flags: W
LayerCount: 2
Fore
SplineSet
229 500 m 1,0,-1
 177 0 l 1,1,-1
 80 0 l 1,2,-1
 132 500 l 1,3,-1
 229 500 l 1,0,-1
140 623 m 1,4,-1
 151 730 l 1,5,-1
 258 730 l 1,6,-1
 247 623 l 1,7,-1
 140 623 l 1,4,-1
EndSplineSet
EndChar

StartChar: j
Encoding: 106 106 77
Width: 257
GlyphClass: 2
Flags: W
LayerCount: 2
Fore
SplineSet
140 623 m 1,0,-1
 151 730 l 1,1,-1
 258 730 l 1,2,-1
 247 623 l 1,3,-1
 140 623 l 1,0,-1
229 500 m 1,4,-1
 163 -133 l 1,5,-1
 39 -200 l 1,6,-1
 -61 -200 l 1,7,-1
 -51 -113 l 1,8,-1
 68 -113 l 1,9,-1
 132 500 l 1,10,-1
 229 500 l 1,4,-1
EndSplineSet
EndChar

StartChar: k
Encoding: 107 107 78
Width: 531
GlyphClass: 2
Flags: W
LayerCount: 2
Fore
SplineSet
253 730 m 1,0,-1
 203 251 l 1,1,-1
 205 251 l 1,2,-1
 437 500 l 1,3,-1
 553 500 l 1,4,-1
 336 274 l 1,5,-1
 531 0 l 1,6,-1
 412 0 l 1,7,-1
 271 205 l 1,8,-1
 189 119 l 1,9,-1
 177 0 l 1,10,-1
 80 0 l 1,11,-1
 156 730 l 1,12,-1
 253 730 l 1,0,-1
EndSplineSet
EndChar

StartChar: l
Encoding: 108 108 79
Width: 317
GlyphClass: 2
Flags: W
LayerCount: 2
Fore
SplineSet
196 0 m 1,0,-1
 87 67 l 1,1,-1
 156 730 l 1,2,-1
 253 730 l 1,3,-1
 186 87 l 1,4,-1
 306 87 l 1,5,-1
 297 0 l 1,6,-1
 196 0 l 1,0,-1
EndSplineSet
EndChar

StartChar: m
Encoding: 109 109 80
Width: 833
GlyphClass: 2
Flags: W
LayerCount: 2
Fore
SplineSet
799 438 m 1,0,-1
 753 0 l 1,1,-1
 656 0 l 1,2,-1
 699 418 l 1,3,-1
 508 418 l 1,4,-1
 465 0 l 1,5,-1
 368 0 l 1,6,-1
 411 418 l 1,7,-1
 220 418 l 1,8,-1
 177 0 l 1,9,-1
 80 0 l 1,10,-1
 133 505 l 1,11,-1
 206 505 l 1,12,-1
 225 464 l 1,13,-1
 301 505 l 1,14,-1
 402 505 l 1,15,-1
 489 451 l 1,16,-1
 589 505 l 1,17,-1
 690 505 l 1,18,-1
 799 438 l 1,0,-1
EndSplineSet
EndChar

StartChar: n
Encoding: 110 110 81
Width: 585
GlyphClass: 2
Flags: W
LayerCount: 2
Fore
SplineSet
551 438 m 1,0,-1
 505 0 l 1,1,-1
 408 0 l 1,2,-1
 451 418 l 1,3,-1
 220 418 l 1,4,-1
 177 0 l 1,5,-1
 80 0 l 1,6,-1
 133 505 l 1,7,-1
 206 505 l 1,8,-1
 225 464 l 1,9,-1
 301 505 l 1,10,-1
 442 505 l 1,11,-1
 551 438 l 1,0,-1
EndSplineSet
EndChar

StartChar: o
Encoding: 111 111 82
Width: 585
GlyphClass: 2
Flags: W
LayerCount: 2
Fore
SplineSet
511 62 m 1,0,-1
 388 -5 l 1,1,-1
 195 -5 l 1,2,-1
 86 62 l 1,3,-1
 126 438 l 1,4,-1
 249 505 l 1,5,-1
 442 505 l 1,6,-1
 551 438 l 1,7,-1
 511 62 l 1,0,-1
220 418 m 1,8,-1
 185 82 l 1,9,-1
 416 82 l 1,10,-1
 451 418 l 1,11,-1
 220 418 l 1,8,-1
EndSplineSet
EndChar

StartChar: p
Encoding: 112 112 83
Width: 595
GlyphClass: 2
Flags: W
LayerCount: 2
Fore
SplineSet
398 -5 m 1,0,-1
 247 -5 l 1,1,-1
 180 36 l 1,2,-1
 155 -200 l 1,3,-1
 58 -200 l 1,4,-1
 133 505 l 1,5,-1
 206 505 l 1,6,-1
 225 464 l 1,7,-1
 301 505 l 1,8,-1
 452 505 l 1,9,-1
 561 438 l 1,10,-1
 521 62 l 1,11,-1
 398 -5 l 1,0,-1
220 418 m 1,12,-1
 185 82 l 1,13,-1
 426 82 l 1,14,-1
 461 418 l 1,15,-1
 220 418 l 1,12,-1
EndSplineSet
EndChar

StartChar: q
Encoding: 113 113 84
Width: 595
GlyphClass: 2
Flags: W
LayerCount: 2
Fore
SplineSet
346 -5 m 1,0,-1
 195 -5 l 1,1,-1
 86 62 l 1,2,-1
 126 438 l 1,3,-1
 249 505 l 1,4,-1
 400 505 l 1,5,-1
 466 464 l 1,6,-1
 542 505 l 1,7,-1
 568 505 l 1,8,-1
 493 -200 l 1,9,-1
 396 -200 l 1,10,-1
 421 36 l 1,11,-1
 346 -5 l 1,0,-1
426 82 m 1,12,-1
 461 418 l 1,13,-1
 220 418 l 1,14,-1
 185 82 l 1,15,-1
 426 82 l 1,12,-1
EndSplineSet
EndChar

StartChar: r
Encoding: 114 114 85
Width: 389
GlyphClass: 2
Flags: W
LayerCount: 2
Fore
SplineSet
402 413 m 1,0,-1
 220 413 l 1,1,-1
 177 0 l 1,2,-1
 80 0 l 1,3,-1
 132 500 l 1,4,-1
 205 500 l 1,5,-1
 225 459 l 1,6,-1
 300 500 l 1,7,-1
 411 500 l 1,8,-1
 402 413 l 1,0,-1
EndSplineSet
EndChar

StartChar: s
Encoding: 115 115 86
Width: 536
GlyphClass: 2
Flags: W
LayerCount: 2
Fore
SplineSet
480 230 m 1,0,-1
 463 67 l 1,1,-1
 340 0 l 1,2,-1
 80 0 l 1,3,-1
 89 87 l 1,4,-1
 368 87 l 1,5,-1
 381 210 l 1,6,-1
 218 210 l 1,7,-1
 109 277 l 1,8,-1
 125 433 l 1,9,-1
 248 500 l 1,10,-1
 498 500 l 1,11,-1
 489 413 l 1,12,-1
 220 413 l 1,13,-1
 208 297 l 1,14,-1
 371 297 l 1,15,-1
 480 230 l 1,0,-1
EndSplineSet
EndChar

StartChar: t
Encoding: 116 116 87
Width: 409
GlyphClass: 2
Flags: W
LayerCount: 2
Fore
SplineSet
83 413 m 1,0,-1
 92 500 l 1,1,-1
 184 500 l 1,2,-1
 193 584 l 1,3,-1
 296 640 l 1,4,-1
 281 500 l 1,5,-1
 401 500 l 1,6,-1
 392 413 l 1,7,-1
 272 413 l 1,8,-1
 238 87 l 1,9,-1
 358 87 l 1,10,-1
 349 0 l 1,11,-1
 248 0 l 1,12,-1
 139 67 l 1,13,-1
 175 413 l 1,14,-1
 83 413 l 1,0,-1
EndSplineSet
EndChar

StartChar: u
Encoding: 117 117 88
Width: 585
GlyphClass: 2
Flags: W
LayerCount: 2
Fore
SplineSet
86 62 m 1,0,-1
 132 500 l 1,1,-1
 229 500 l 1,2,-1
 185 82 l 1,3,-1
 416 82 l 1,4,-1
 460 500 l 1,5,-1
 557 500 l 1,6,-1
 504 -5 l 1,7,-1
 431 -5 l 1,8,-1
 411 36 l 1,9,-1
 336 -5 l 1,10,-1
 195 -5 l 1,11,-1
 86 62 l 1,0,-1
EndSplineSet
EndChar

StartChar: v
Encoding: 118 118 89
Width: 527
GlyphClass: 2
Flags: W
LayerCount: 2
Fore
SplineSet
167 500 m 1,0,-1
 271 92 l 1,1,-1
 273 92 l 1,2,-1
 464 500 l 1,3,-1
 559 500 l 1,4,-1
 322 0 l 1,5,-1
 205 0 l 1,6,-1
 72 500 l 1,7,-1
 167 500 l 1,0,-1
EndSplineSet
EndChar

StartChar: w
Encoding: 119 119 90
Width: 757
GlyphClass: 2
Flags: W
LayerCount: 2
Fore
SplineSet
487 0 m 1,0,-1
 419 382 l 1,1,-1
 417 382 l 1,2,-1
 270 0 l 1,3,-1
 155 0 l 1,4,-1
 82 500 l 1,5,-1
 172 500 l 1,6,-1
 226 109 l 1,7,-1
 228 109 l 1,8,-1
 379 500 l 1,9,-1
 482 500 l 1,10,-1
 551 109 l 1,11,-1
 553 109 l 1,12,-1
 689 500 l 1,13,-1
 779 500 l 1,14,-1
 602 0 l 1,15,-1
 487 0 l 1,0,-1
EndSplineSet
EndChar

StartChar: x
Encoding: 120 120 91
Width: 500
GlyphClass: 2
Flags: W
LayerCount: 2
Fore
SplineSet
20 0 m 1,0,-1
 225 255 l 1,1,-1
 78 500 l 1,2,-1
 186 500 l 1,3,-1
 284 328 l 1,4,-1
 418 500 l 1,5,-1
 526 500 l 1,6,-1
 326 255 l 1,7,-1
 480 0 l 1,8,-1
 375 0 l 1,9,-1
 269 183 l 1,10,-1
 125 0 l 1,11,-1
 20 0 l 1,0,-1
EndSplineSet
EndChar

StartChar: y
Encoding: 121 121 92
Width: 519
GlyphClass: 2
Flags: W
LayerCount: 2
Fore
SplineSet
104 -200 m 1,0,-1
 215 23 l 1,1,-1
 72 500 l 1,2,-1
 169 500 l 1,3,-1
 274 144 l 1,4,-1
 276 144 l 1,5,-1
 454 500 l 1,6,-1
 551 500 l 1,7,-1
 199 -200 l 1,8,-1
 104 -200 l 1,0,-1
EndSplineSet
EndChar

StartChar: z
Encoding: 122 122 93
Width: 466
GlyphClass: 2
Flags: W
LayerCount: 2
Fore
SplineSet
46 66 m 1,0,-1
 335 411 l 1,1,-1
 335 413 l 1,2,-1
 93 413 l 1,3,-1
 102 500 l 1,4,-1
 468 500 l 1,5,-1
 461 434 l 1,6,-1
 173 89 l 1,7,-1
 173 87 l 1,8,-1
 425 87 l 1,9,-1
 416 0 l 1,10,-1
 40 0 l 1,11,-1
 46 66 l 1,0,-1
EndSplineSet
EndChar

StartChar: braceleft
Encoding: 123 123 94
Width: 398
GlyphClass: 2
Flags: W
LayerCount: 2
Fore
SplineSet
228 225 m 1,0,-1
 191 -130 l 1,1,-1
 324 -130 l 1,2,-1
 316 -200 l 1,3,-1
 219 -200 l 1,4,-1
 111 -133 l 1,5,-1
 149 230 l 1,6,-1
 64 230 l 1,7,-1
 71 300 l 1,8,-1
 156 300 l 1,9,-1
 194 663 l 1,10,-1
 317 730 l 1,11,-1
 414 730 l 1,12,-1
 407 660 l 1,13,-1
 274 660 l 1,14,-1
 237 305 l 1,15,-1
 165 266 l 1,16,-1
 165 264 l 1,17,-1
 228 225 l 1,0,-1
EndSplineSet
EndChar

StartChar: bar
Encoding: 124 124 95
Width: 330
GlyphClass: 2
Flags: W
LayerCount: 2
Fore
SplineSet
98 -200 m 1,0,-1
 196 730 l 1,1,-1
 286 730 l 1,2,-1
 188 -200 l 1,3,-1
 98 -200 l 1,0,-1
EndSplineSet
EndChar

StartChar: braceright
Encoding: 125 125 96
Width: 398
GlyphClass: 2
Flags: W
LayerCount: 2
Fore
SplineSet
179 -130 m 1,0,-1
 216 225 l 1,1,-1
 287 264 l 1,2,-1
 287 266 l 1,3,-1
 225 305 l 1,4,-1
 262 660 l 1,5,-1
 129 660 l 1,6,-1
 136 730 l 1,7,-1
 233 730 l 1,8,-1
 342 663 l 1,9,-1
 304 300 l 1,10,-1
 389 300 l 1,11,-1
 382 230 l 1,12,-1
 297 230 l 1,13,-1
 259 -133 l 1,14,-1
 135 -200 l 1,15,-1
 38 -200 l 1,16,-1
 46 -130 l 1,17,-1
 179 -130 l 1,0,-1
EndSplineSet
EndChar

StartChar: asciitilde
Encoding: 126 126 97
Width: 682
GlyphClass: 2
Flags: W
LayerCount: 2
Fore
SplineSet
280 270 m 1,0,-1
 185 270 l 1,1,-1
 176 188 l 1,2,-1
 89 188 l 1,3,-1
 100 290 l 1,4,-1
 223 357 l 1,5,-1
 326 357 l 1,6,-1
 458 275 l 1,7,-1
 553 275 l 1,8,-1
 562 357 l 1,9,-1
 649 357 l 1,10,-1
 638 255 l 1,11,-1
 515 188 l 1,12,-1
 412 188 l 1,13,-1
 280 270 l 1,0,-1
EndSplineSet
EndChar

StartChar: exclamdown
Encoding: 161 161 99
Width: 350
GlyphClass: 2
Flags: W
LayerCount: 2
Fore
SplineSet
136 350 m 1,0,-1
 152 500 l 1,1,-1
 302 500 l 1,2,-1
 286 350 l 1,3,-1
 136 350 l 1,0,-1
84 -230 m 1,4,-1
 159 232 l 1,5,-1
 239 232 l 1,6,-1
 216 -230 l 1,7,-1
 84 -230 l 1,4,-1
EndSplineSet
EndChar

StartChar: cent
Encoding: 162 162 100
Width: 515
GlyphClass: 2
Flags: W
LayerCount: 2
Fore
SplineSet
415 500 m 1,0,-1
 507 500 l 1,1,-1
 498 413 l 1,2,-1
 220 413 l 1,3,-1
 186 87 l 1,4,-1
 464 87 l 1,5,-1
 455 0 l 1,6,-1
 363 0 l 1,7,-1
 350 -118 l 1,8,-1
 254 -118 l 1,9,-1
 267 0 l 1,10,-1
 196 0 l 1,11,-1
 87 67 l 1,12,-1
 125 433 l 1,13,-1
 248 500 l 1,14,-1
 319 500 l 1,15,-1
 331 618 l 1,16,-1
 427 618 l 1,17,-1
 415 500 l 1,0,-1
EndSplineSet
EndChar

StartChar: sterling
Encoding: 163 163 101
Width: 642
GlyphClass: 2
Flags: W
LayerCount: 2
Fore
SplineSet
394 365 m 1,0,-1
 386 291 l 1,1,-1
 247 291 l 1,2,-1
 226 90 l 1,3,-1
 501 90 l 1,4,-1
 510 180 l 1,5,-1
 610 180 l 1,6,-1
 599 67 l 1,7,-1
 476 0 l 1,8,-1
 117 0 l 1,9,-1
 147 291 l 1,10,-1
 70 291 l 1,11,-1
 78 365 l 1,12,-1
 155 365 l 1,13,-1
 184 638 l 1,14,-1
 307 705 l 1,15,-1
 500 705 l 1,16,-1
 609 638 l 1,17,-1
 597 525 l 1,18,-1
 497 525 l 1,19,-1
 506 615 l 1,20,-1
 281 615 l 1,21,-1
 255 365 l 1,22,-1
 394 365 l 1,0,-1
EndSplineSet
EndChar

StartChar: yen
Encoding: 165 165 102
Width: 651
GlyphClass: 2
Flags: W
LayerCount: 2
Fore
SplineSet
108 303 m 1,0,-1
 116 377 l 1,1,-1
 273 377 l 1,2,-1
 113 700 l 1,3,-1
 225 700 l 1,4,-1
 366 402 l 1,5,-1
 368 402 l 1,6,-1
 572 700 l 1,7,-1
 684 700 l 1,8,-1
 455 377 l 1,9,-1
 612 377 l 1,10,-1
 604 303 l 1,11,-1
 406 303 l 1,12,-1
 398 222 l 1,13,-1
 596 222 l 1,14,-1
 588 148 l 1,15,-1
 390 148 l 1,16,-1
 375 0 l 1,17,-1
 275 0 l 1,18,-1
 290 148 l 1,19,-1
 92 148 l 1,20,-1
 100 222 l 1,21,-1
 298 222 l 1,22,-1
 306 303 l 1,23,-1
 108 303 l 1,0,-1
EndSplineSet
EndChar

StartChar: brokenbar
Encoding: 166 166 103
Width: 330
GlyphClass: 2
Flags: W
LayerCount: 2
Fore
SplineSet
98 -200 m 1,0,-1
 141 202 l 1,1,-1
 231 202 l 1,2,-1
 188 -200 l 1,3,-1
 98 -200 l 1,0,-1
154 328 m 1,4,-1
 196 730 l 1,5,-1
 286 730 l 1,6,-1
 244 328 l 1,7,-1
 154 328 l 1,4,-1
EndSplineSet
EndChar

StartChar: section
Encoding: 167 167 104
Width: 653
GlyphClass: 2
Flags: W
LayerCount: 2
Fore
SplineSet
462 163 m 1,0,-1
 480 342 l 1,1,-1
 253 342 l 1,2,-1
 235 163 l 1,3,-1
 462 163 l 1,0,-1
153 336 m 1,4,-1
 245 386 l 1,5,-1
 245 388 l 1,6,-1
 164 438 l 1,7,-1
 185 638 l 1,8,-1
 308 705 l 1,9,-1
 521 705 l 1,10,-1
 630 638 l 1,11,-1
 619 535 l 1,12,-1
 519 535 l 1,13,-1
 527 615 l 1,14,-1
 282 615 l 1,15,-1
 263 432 l 1,16,-1
 474 432 l 1,17,-1
 583 365 l 1,18,-1
 562 169 l 1,19,-1
 470 119 l 1,20,-1
 470 117 l 1,21,-1
 552 67 l 1,22,-1
 531 -133 l 1,23,-1
 407 -200 l 1,24,-1
 184 -200 l 1,25,-1
 76 -133 l 1,26,-1
 86 -30 l 1,27,-1
 186 -30 l 1,28,-1
 178 -110 l 1,29,-1
 433 -110 l 1,30,-1
 452 73 l 1,31,-1
 241 73 l 1,32,-1
 132 140 l 1,33,-1
 153 336 l 1,4,-1
EndSplineSet
EndChar

StartChar: dieresis
Encoding: 168 168 105
Width: 544
GlyphClass: 2
Flags: W
LayerCount: 2
Fore
SplineSet
172 595 m 1,0,-1
 183 700 l 1,1,-1
 288 700 l 1,2,-1
 277 595 l 1,3,-1
 172 595 l 1,0,-1
391 595 m 1,4,-1
 402 700 l 1,5,-1
 507 700 l 1,6,-1
 496 595 l 1,7,-1
 391 595 l 1,4,-1
EndSplineSet
EndChar

StartChar: copyright
Encoding: 169 169 106
Width: 840
GlyphClass: 2
Flags: W
LayerCount: 2
Fore
SplineSet
756 62 m 1,0,-1
 633 -5 l 1,1,-1
 205 -5 l 1,2,-1
 96 62 l 1,3,-1
 157 638 l 1,4,-1
 280 705 l 1,5,-1
 708 705 l 1,6,-1
 817 638 l 1,7,-1
 756 62 l 1,0,-1
236 635 m 1,8,-1
 176 65 l 1,9,-1
 676 65 l 1,10,-1
 736 635 l 1,11,-1
 236 635 l 1,8,-1
543 251 m 1,12,-1
 612 251 l 1,13,-1
 604 177 l 1,14,-1
 527 135 l 1,15,-1
 341 135 l 1,16,-1
 271 177 l 1,17,-1
 307 523 l 1,18,-1
 386 565 l 1,19,-1
 572 565 l 1,20,-1
 640 523 l 1,21,-1
 633 449 l 1,22,-1
 564 449 l 1,23,-1
 569 502 l 1,24,-1
 374 502 l 1,25,-1
 342 198 l 1,26,-1
 537 198 l 1,27,-1
 543 251 l 1,12,-1
EndSplineSet
EndChar

StartChar: ordfeminine
Encoding: 170 170 107
Width: 595
GlyphClass: 2
Flags: W
LayerCount: 2
Fore
SplineSet
90 0 m 1,0,-1
 99 87 l 1,1,-1
 514 87 l 1,2,-1
 505 0 l 1,3,-1
 90 0 l 1,0,-1
251 613 m 1,4,-1
 216 277 l 1,5,-1
 437 277 l 1,6,-1
 472 613 l 1,7,-1
 251 613 l 1,4,-1
578 700 m 1,8,-1
 524 190 l 1,9,-1
 498 190 l 1,10,-1
 432 231 l 1,11,-1
 356 190 l 1,12,-1
 225 190 l 1,13,-1
 117 257 l 1,14,-1
 156 633 l 1,15,-1
 279 700 l 1,16,-1
 410 700 l 1,17,-1
 477 659 l 1,18,-1
 552 700 l 1,19,-1
 578 700 l 1,8,-1
EndSplineSet
EndChar

StartChar: guillemotleft
Encoding: 171 171 108
Width: 680
GlyphClass: 2
Flags: W
LayerCount: 2
Fore
SplineSet
351 107 m 1,0,-1
 340 0 l 1,1,-1
 111 200 l 1,2,-1
 121 302 l 1,3,-1
 392 502 l 1,4,-1
 381 395 l 1,5,-1
 183 252 l 1,6,-1
 183 251 l 1,7,-1
 351 107 l 1,0,-1
601 107 m 1,8,-1
 590 0 l 1,9,-1
 361 200 l 1,10,-1
 371 302 l 1,11,-1
 642 502 l 1,12,-1
 631 395 l 1,13,-1
 433 252 l 1,14,-1
 433 251 l 1,15,-1
 601 107 l 1,8,-1
EndSplineSet
EndChar

StartChar: registered
Encoding: 174 174 109
Width: 840
GlyphClass: 2
Flags: W
LayerCount: 2
Fore
SplineSet
756 62 m 1,0,-1
 633 -5 l 1,1,-1
 205 -5 l 1,2,-1
 96 62 l 1,3,-1
 157 638 l 1,4,-1
 280 705 l 1,5,-1
 708 705 l 1,6,-1
 817 638 l 1,7,-1
 756 62 l 1,0,-1
236 635 m 1,8,-1
 176 65 l 1,9,-1
 676 65 l 1,10,-1
 736 635 l 1,11,-1
 236 635 l 1,8,-1
468 303 m 1,12,-1
 362 303 l 1,13,-1
 345 138 l 1,14,-1
 276 138 l 1,15,-1
 321 562 l 1,16,-1
 562 562 l 1,17,-1
 631 520 l 1,18,-1
 613 346 l 1,19,-1
 541 306 l 1,20,-1
 622 138 l 1,21,-1
 545 138 l 1,22,-1
 468 303 l 1,12,-1
383 499 m 1,23,-1
 369 366 l 1,24,-1
 546 366 l 1,25,-1
 560 499 l 1,26,-1
 383 499 l 1,23,-1
EndSplineSet
EndChar

StartChar: macron
Encoding: 175 175 110
Width: 599
GlyphClass: 2
Flags: W
LayerCount: 2
Fore
SplineSet
207 600 m 1,0,-1
 214 667 l 1,1,-1
 525 667 l 1,2,-1
 518 600 l 1,3,-1
 207 600 l 1,0,-1
EndSplineSet
EndChar

StartChar: degree
Encoding: 176 176 111
Width: 505
GlyphClass: 2
Flags: W
LayerCount: 2
Fore
SplineSet
469 424 m 1,0,-1
 346 357 l 1,1,-1
 233 357 l 1,2,-1
 124 424 l 1,3,-1
 147 643 l 1,4,-1
 270 710 l 1,5,-1
 383 710 l 1,6,-1
 492 643 l 1,7,-1
 469 424 l 1,0,-1
237 629 m 1,8,-1
 217 438 l 1,9,-1
 380 438 l 1,10,-1
 400 629 l 1,11,-1
 237 629 l 1,8,-1
EndSplineSet
EndChar

StartChar: plusminus
Encoding: 177 177 112
Width: 680
GlyphClass: 2
Flags: W
LayerCount: 2
Fore
SplineSet
128 367 m 1,0,-1
 331 367 l 1,1,-1
 345 500 l 1,2,-1
 439 500 l 1,3,-1
 425 367 l 1,4,-1
 628 367 l 1,5,-1
 618 273 l 1,6,-1
 415 273 l 1,7,-1
 401 140 l 1,8,-1
 307 140 l 1,9,-1
 321 273 l 1,10,-1
 118 273 l 1,11,-1
 128 367 l 1,0,-1
599 94 m 1,12,-1
 590 0 l 1,13,-1
 90 0 l 1,14,-1
 99 94 l 1,15,-1
 599 94 l 1,12,-1
EndSplineSet
EndChar

StartChar: acute
Encoding: 180 180 113
Width: 500
GlyphClass: 2
Flags: W
LayerCount: 2
Fore
SplineSet
247 590 m 1,0,-1
 354 718 l 1,1,-1
 484 718 l 1,2,-1
 327 590 l 1,3,-1
 247 590 l 1,0,-1
EndSplineSet
EndChar

StartChar: mu
Encoding: 181 181 114
Width: 612
GlyphClass: 2
Flags: W
LayerCount: 2
Fore
SplineSet
448 0 m 1,0,-1
 428 41 l 1,1,-1
 353 0 l 1,2,-1
 193 0 l 1,3,-1
 177 -158 l 1,4,-1
 80 -158 l 1,5,-1
 149 500 l 1,6,-1
 246 500 l 1,7,-1
 202 87 l 1,8,-1
 433 87 l 1,9,-1
 477 500 l 1,10,-1
 574 500 l 1,11,-1
 530 87 l 1,12,-1
 617 87 l 1,13,-1
 608 0 l 1,14,-1
 448 0 l 1,0,-1
EndSplineSet
EndChar

StartChar: paragraph
Encoding: 182 182 115
Width: 685
GlyphClass: 2
Flags: W
LayerCount: 2
Fore
SplineSet
476 -200 m 1,0,-1
 562 613 l 1,1,-1
 465 613 l 1,2,-1
 379 -200 l 1,3,-1
 282 -200 l 1,4,-1
 330 249 l 1,5,-1
 202 249 l 1,6,-1
 93 316 l 1,7,-1
 126 633 l 1,8,-1
 249 700 l 1,9,-1
 668 700 l 1,10,-1
 573 -200 l 1,11,-1
 476 -200 l 1,0,-1
EndSplineSet
EndChar

StartChar: periodcentered
Encoding: 183 183 116
Width: 350
GlyphClass: 2
Flags: W
LayerCount: 2
Fore
SplineSet
129 284 m 1,0,-1
 145 434 l 1,1,-1
 295 434 l 1,2,-1
 279 284 l 1,3,-1
 129 284 l 1,0,-1
EndSplineSet
EndChar

StartChar: cedilla
Encoding: 184 184 117
Width: 578
GlyphClass: 2
Flags: W
LayerCount: 2
Fore
SplineSet
269 0 m 1,0,-1
 323 0 l 1,1,-1
 297 -37 l 1,2,-1
 359 -75 l 1,3,-1
 351 -149 l 1,4,-1
 260 -199 l 1,5,-1
 190 -199 l 1,6,-1
 195 -149 l 1,7,-1
 294 -149 l 1,8,-1
 301 -84 l 1,9,-1
 212 -84 l 1,10,-1
 269 0 l 1,0,-1
EndSplineSet
EndChar

StartChar: ordmasculine
Encoding: 186 186 118
Width: 605
GlyphClass: 2
Flags: W
LayerCount: 2
Fore
SplineSet
542 262 m 1,0,-1
 419 195 l 1,1,-1
 226 195 l 1,2,-1
 117 262 l 1,3,-1
 157 638 l 1,4,-1
 280 705 l 1,5,-1
 473 705 l 1,6,-1
 582 638 l 1,7,-1
 542 262 l 1,0,-1
251 618 m 1,8,-1
 216 282 l 1,9,-1
 447 282 l 1,10,-1
 482 618 l 1,11,-1
 251 618 l 1,8,-1
90 0 m 1,12,-1
 99 87 l 1,13,-1
 524 87 l 1,14,-1
 515 0 l 1,15,-1
 90 0 l 1,12,-1
EndSplineSet
EndChar

StartChar: guillemotright
Encoding: 187 187 119
Width: 680
GlyphClass: 2
Flags: W
LayerCount: 2
Fore
SplineSet
340 0 m 1,0,-1
 351 107 l 1,1,-1
 549 251 l 1,2,-1
 549 252 l 1,3,-1
 381 395 l 1,4,-1
 392 502 l 1,5,-1
 621 302 l 1,6,-1
 611 200 l 1,7,-1
 340 0 l 1,0,-1
90 0 m 1,8,-1
 101 107 l 1,9,-1
 299 251 l 1,10,-1
 299 252 l 1,11,-1
 131 395 l 1,12,-1
 142 502 l 1,13,-1
 371 302 l 1,14,-1
 361 200 l 1,15,-1
 90 0 l 1,8,-1
EndSplineSet
EndChar

StartChar: questiondown
Encoding: 191 191 120
Width: 580
GlyphClass: 2
Flags: W
LayerCount: 2
Fore
SplineSet
294 109 m 1,0,-1
 316 232 l 1,1,-1
 396 232 l 1,2,-1
 391 86 l 1,3,-1
 267 19 l 1,4,-1
 191 19 l 1,5,-1
 175 -140 l 1,6,-1
 375 -140 l 1,7,-1
 384 -50 l 1,8,-1
 484 -50 l 1,9,-1
 472 -163 l 1,10,-1
 349 -230 l 1,11,-1
 181 -230 l 1,12,-1
 72 -163 l 1,13,-1
 94 42 l 1,14,-1
 217 109 l 1,15,-1
 294 109 l 1,0,-1
459 500 m 1,16,-1
 443 350 l 1,17,-1
 293 350 l 1,18,-1
 309 500 l 1,19,-1
 459 500 l 1,16,-1
EndSplineSet
EndChar

StartChar: Agrave
Encoding: 192 192 121
Width: 664
GlyphClass: 2
Flags: W
LayerCount: 2
Fore
SplineSet
467 700 m 1,0,-1
 644 0 l 1,1,-1
 546 0 l 1,2,-1
 504 166 l 1,3,-1
 194 166 l 1,4,-1
 118 0 l 1,5,-1
 20 0 l 1,6,-1
 343 700 l 1,7,-1
 467 700 l 1,0,-1
394 601 m 1,8,-1
 235 256 l 1,9,-1
 481 256 l 1,10,-1
 396 601 l 1,11,-1
 394 601 l 1,8,-1
393 908 m 1,12,-1
 474 780 l 1,13,-1
 394 780 l 1,14,-1
 263 908 l 1,15,-1
 393 908 l 1,12,-1
EndSplineSet
EndChar

StartChar: Aacute
Encoding: 193 193 122
Width: 664
GlyphClass: 2
Flags: W
LayerCount: 2
Fore
SplineSet
467 700 m 1,0,-1
 644 0 l 1,1,-1
 546 0 l 1,2,-1
 504 166 l 1,3,-1
 194 166 l 1,4,-1
 118 0 l 1,5,-1
 20 0 l 1,6,-1
 343 700 l 1,7,-1
 467 700 l 1,0,-1
394 601 m 1,8,-1
 235 256 l 1,9,-1
 481 256 l 1,10,-1
 396 601 l 1,11,-1
 394 601 l 1,8,-1
307 780 m 1,12,-1
 414 908 l 1,13,-1
 544 908 l 1,14,-1
 387 780 l 1,15,-1
 307 780 l 1,12,-1
EndSplineSet
EndChar

StartChar: Acircumflex
Encoding: 194 194 123
Width: 664
GlyphClass: 2
Flags: W
LayerCount: 2
Fore
SplineSet
467 700 m 1,0,-1
 644 0 l 1,1,-1
 546 0 l 1,2,-1
 504 166 l 1,3,-1
 194 166 l 1,4,-1
 118 0 l 1,5,-1
 20 0 l 1,6,-1
 343 700 l 1,7,-1
 467 700 l 1,0,-1
394 601 m 1,8,-1
 235 256 l 1,9,-1
 481 256 l 1,10,-1
 396 601 l 1,11,-1
 394 601 l 1,8,-1
353 918 m 1,12,-1
 463 918 l 1,13,-1
 550 780 l 1,14,-1
 475 780 l 1,15,-1
 402 860 l 1,16,-1
 314 780 l 1,17,-1
 239 780 l 1,18,-1
 353 918 l 1,12,-1
EndSplineSet
EndChar

StartChar: Atilde
Encoding: 195 195 124
Width: 664
GlyphClass: 2
Flags: W
LayerCount: 2
Fore
SplineSet
467 700 m 1,0,-1
 644 0 l 1,1,-1
 546 0 l 1,2,-1
 504 166 l 1,3,-1
 194 166 l 1,4,-1
 118 0 l 1,5,-1
 20 0 l 1,6,-1
 343 700 l 1,7,-1
 467 700 l 1,0,-1
394 601 m 1,8,-1
 235 256 l 1,9,-1
 481 256 l 1,10,-1
 396 601 l 1,11,-1
 394 601 l 1,8,-1
319 857 m 1,12,-1
 317 857 l 1,13,-1
 308 775 l 1,14,-1
 240 775 l 1,15,-1
 250 869 l 1,16,-1
 350 924 l 1,17,-1
 483 842 l 1,18,-1
 485 842 l 1,19,-1
 494 924 l 1,20,-1
 562 924 l 1,21,-1
 552 830 l 1,22,-1
 452 775 l 1,23,-1
 319 857 l 1,12,-1
EndSplineSet
EndChar

StartChar: Adieresis
Encoding: 196 196 125
Width: 664
GlyphClass: 2
Flags: W
LayerCount: 2
Fore
SplineSet
467 700 m 1,0,-1
 644 0 l 1,1,-1
 546 0 l 1,2,-1
 504 166 l 1,3,-1
 194 166 l 1,4,-1
 118 0 l 1,5,-1
 20 0 l 1,6,-1
 343 700 l 1,7,-1
 467 700 l 1,0,-1
394 601 m 1,8,-1
 235 256 l 1,9,-1
 481 256 l 1,10,-1
 396 601 l 1,11,-1
 394 601 l 1,8,-1
232 785 m 1,12,-1
 243 890 l 1,13,-1
 348 890 l 1,14,-1
 337 785 l 1,15,-1
 232 785 l 1,12,-1
451 785 m 1,16,-1
 462 890 l 1,17,-1
 567 890 l 1,18,-1
 556 785 l 1,19,-1
 451 785 l 1,16,-1
EndSplineSet
EndChar

StartChar: Aring
Encoding: 197 197 126
Width: 664
GlyphClass: 2
Flags: W
LayerCount: 2
Fore
SplineSet
546 682 m 1,0,-1
 480 646 l 1,1,-1
 644 0 l 1,2,-1
 546 0 l 1,3,-1
 504 166 l 1,4,-1
 194 166 l 1,5,-1
 118 0 l 1,6,-1
 20 0 l 1,7,-1
 319 647 l 1,8,-1
 261 682 l 1,9,-1
 279 851 l 1,10,-1
 366 898 l 1,11,-1
 487 898 l 1,12,-1
 564 851 l 1,13,-1
 546 682 l 1,0,-1
394 601 m 1,14,-1
 235 256 l 1,15,-1
 481 256 l 1,16,-1
 396 601 l 1,17,-1
 394 601 l 1,14,-1
352 833 m 1,18,-1
 338 700 l 1,19,-1
 473 700 l 1,20,-1
 487 833 l 1,21,-1
 352 833 l 1,18,-1
EndSplineSet
EndChar

StartChar: AE
Encoding: 198 198 127
Width: 968
GlyphClass: 2
Flags: W
LayerCount: 2
Fore
SplineSet
652 315 m 1,0,-1
 628 90 l 1,1,-1
 927 90 l 1,2,-1
 918 0 l 1,3,-1
 519 0 l 1,4,-1
 536 166 l 1,5,-1
 230 166 l 1,6,-1
 98 0 l 1,7,-1
 -20 0 l 1,8,-1
 543 700 l 1,9,-1
 991 700 l 1,10,-1
 982 610 l 1,11,-1
 683 610 l 1,12,-1
 661 405 l 1,13,-1
 900 405 l 1,14,-1
 891 315 l 1,15,-1
 652 315 l 1,0,-1
580 601 m 1,16,-1
 302 256 l 1,17,-1
 545 256 l 1,18,-1
 582 601 l 1,19,-1
 580 601 l 1,16,-1
EndSplineSet
EndChar

StartChar: Ccedilla
Encoding: 199 199 128
Width: 665
GlyphClass: 2
Flags: W
LayerCount: 2
Fore
SplineSet
503 175 m 1,0,-1
 603 175 l 1,1,-1
 591 62 l 1,2,-1
 468 -5 l 1,3,-1
 362 -5 l 1,4,-1
 340 -37 l 1,5,-1
 402 -75 l 1,6,-1
 394 -149 l 1,7,-1
 303 -199 l 1,8,-1
 233 -199 l 1,9,-1
 238 -149 l 1,10,-1
 337 -149 l 1,11,-1
 344 -84 l 1,12,-1
 255 -84 l 1,13,-1
 308 -5 l 1,14,-1
 205 -5 l 1,15,-1
 96 62 l 1,16,-1
 157 638 l 1,17,-1
 280 705 l 1,18,-1
 543 705 l 1,19,-1
 652 638 l 1,20,-1
 640 525 l 1,21,-1
 540 525 l 1,22,-1
 549 615 l 1,23,-1
 254 615 l 1,24,-1
 198 85 l 1,25,-1
 493 85 l 1,26,-1
 503 175 l 1,0,-1
EndSplineSet
EndChar

StartChar: Egrave
Encoding: 200 200 129
Width: 539
GlyphClass: 2
Flags: W
LayerCount: 2
Fore
SplineSet
223 315 m 1,0,-1
 199 90 l 1,1,-1
 498 90 l 1,2,-1
 489 0 l 1,3,-1
 90 0 l 1,4,-1
 163 700 l 1,5,-1
 562 700 l 1,6,-1
 553 610 l 1,7,-1
 254 610 l 1,8,-1
 232 405 l 1,9,-1
 471 405 l 1,10,-1
 462 315 l 1,11,-1
 223 315 l 1,0,-1
330 908 m 1,12,-1
 411 780 l 1,13,-1
 331 780 l 1,14,-1
 200 908 l 1,15,-1
 330 908 l 1,12,-1
EndSplineSet
EndChar

StartChar: Eacute
Encoding: 201 201 130
Width: 539
GlyphClass: 2
Flags: W
LayerCount: 2
Fore
SplineSet
223 315 m 1,0,-1
 199 90 l 1,1,-1
 498 90 l 1,2,-1
 489 0 l 1,3,-1
 90 0 l 1,4,-1
 163 700 l 1,5,-1
 562 700 l 1,6,-1
 553 610 l 1,7,-1
 254 610 l 1,8,-1
 232 405 l 1,9,-1
 471 405 l 1,10,-1
 462 315 l 1,11,-1
 223 315 l 1,0,-1
287 780 m 1,12,-1
 394 908 l 1,13,-1
 524 908 l 1,14,-1
 367 780 l 1,15,-1
 287 780 l 1,12,-1
EndSplineSet
EndChar

StartChar: Ecircumflex
Encoding: 202 202 131
Width: 539
GlyphClass: 2
Flags: W
LayerCount: 2
Fore
SplineSet
223 315 m 1,0,-1
 199 90 l 1,1,-1
 498 90 l 1,2,-1
 489 0 l 1,3,-1
 90 0 l 1,4,-1
 163 700 l 1,5,-1
 562 700 l 1,6,-1
 553 610 l 1,7,-1
 254 610 l 1,8,-1
 232 405 l 1,9,-1
 471 405 l 1,10,-1
 462 315 l 1,11,-1
 223 315 l 1,0,-1
312 918 m 1,12,-1
 422 918 l 1,13,-1
 509 780 l 1,14,-1
 434 780 l 1,15,-1
 361 860 l 1,16,-1
 273 780 l 1,17,-1
 198 780 l 1,18,-1
 312 918 l 1,12,-1
EndSplineSet
EndChar

StartChar: Edieresis
Encoding: 203 203 132
Width: 539
GlyphClass: 2
Flags: W
LayerCount: 2
Fore
SplineSet
223 315 m 1,0,-1
 199 90 l 1,1,-1
 498 90 l 1,2,-1
 489 0 l 1,3,-1
 90 0 l 1,4,-1
 163 700 l 1,5,-1
 562 700 l 1,6,-1
 553 610 l 1,7,-1
 254 610 l 1,8,-1
 232 405 l 1,9,-1
 471 405 l 1,10,-1
 462 315 l 1,11,-1
 223 315 l 1,0,-1
192 785 m 1,12,-1
 203 890 l 1,13,-1
 308 890 l 1,14,-1
 297 785 l 1,15,-1
 192 785 l 1,12,-1
411 785 m 1,16,-1
 422 890 l 1,17,-1
 527 890 l 1,18,-1
 516 785 l 1,19,-1
 411 785 l 1,16,-1
EndSplineSet
EndChar

StartChar: Igrave
Encoding: 204 204 133
Width: 280
GlyphClass: 2
Flags: W
LayerCount: 2
Fore
SplineSet
90 0 m 1,0,-1
 163 700 l 1,1,-1
 263 700 l 1,2,-1
 190 0 l 1,3,-1
 90 0 l 1,0,-1
196 908 m 1,4,-1
 277 780 l 1,5,-1
 197 780 l 1,6,-1
 66 908 l 1,7,-1
 196 908 l 1,4,-1
EndSplineSet
EndChar

StartChar: Iacute
Encoding: 205 205 134
Width: 280
GlyphClass: 2
Flags: W
LayerCount: 2
Fore
SplineSet
90 0 m 1,0,-1
 163 700 l 1,1,-1
 263 700 l 1,2,-1
 190 0 l 1,3,-1
 90 0 l 1,0,-1
127 780 m 1,4,-1
 234 908 l 1,5,-1
 364 908 l 1,6,-1
 207 780 l 1,7,-1
 127 780 l 1,4,-1
EndSplineSet
EndChar

StartChar: Icircumflex
Encoding: 206 206 135
Width: 280
GlyphClass: 2
Flags: W
LayerCount: 2
Fore
SplineSet
90 0 m 1,0,-1
 163 700 l 1,1,-1
 263 700 l 1,2,-1
 190 0 l 1,3,-1
 90 0 l 1,0,-1
161 918 m 1,4,-1
 271 918 l 1,5,-1
 358 780 l 1,6,-1
 283 780 l 1,7,-1
 210 860 l 1,8,-1
 122 780 l 1,9,-1
 47 780 l 1,10,-1
 161 918 l 1,4,-1
EndSplineSet
EndChar

StartChar: Idieresis
Encoding: 207 207 136
Width: 280
GlyphClass: 2
Flags: W
LayerCount: 2
Fore
SplineSet
90 0 m 1,0,-1
 163 700 l 1,1,-1
 263 700 l 1,2,-1
 190 0 l 1,3,-1
 90 0 l 1,0,-1
40 785 m 1,4,-1
 51 890 l 1,5,-1
 156 890 l 1,6,-1
 145 785 l 1,7,-1
 40 785 l 1,4,-1
259 785 m 1,8,-1
 270 890 l 1,9,-1
 375 890 l 1,10,-1
 364 785 l 1,11,-1
 259 785 l 1,8,-1
EndSplineSet
EndChar

StartChar: Eth
Encoding: 208 208 137
Width: 705
GlyphClass: 2
Flags: W
LayerCount: 2
Fore
SplineSet
50 291 m 1,0,-1
 58 365 l 1,1,-1
 128 365 l 1,2,-1
 163 700 l 1,3,-1
 572 700 l 1,4,-1
 681 633 l 1,5,-1
 622 67 l 1,6,-1
 499 0 l 1,7,-1
 90 0 l 1,8,-1
 120 291 l 1,9,-1
 50 291 l 1,0,-1
254 610 m 1,10,-1
 228 365 l 1,11,-1
 334 365 l 1,12,-1
 326 291 l 1,13,-1
 220 291 l 1,14,-1
 199 90 l 1,15,-1
 524 90 l 1,16,-1
 579 610 l 1,17,-1
 254 610 l 1,10,-1
EndSplineSet
EndChar

StartChar: Ntilde
Encoding: 209 209 138
Width: 735
GlyphClass: 2
Flags: W
LayerCount: 2
Fore
SplineSet
245 529 m 1,0,-1
 190 0 l 1,1,-1
 90 0 l 1,2,-1
 163 700 l 1,3,-1
 254 700 l 1,4,-1
 560 171 l 1,5,-1
 562 171 l 1,6,-1
 618 700 l 1,7,-1
 718 700 l 1,8,-1
 645 0 l 1,9,-1
 554 0 l 1,10,-1
 247 529 l 1,11,-1
 245 529 l 1,0,-1
346 857 m 1,12,-1
 344 857 l 1,13,-1
 335 775 l 1,14,-1
 267 775 l 1,15,-1
 277 869 l 1,16,-1
 377 924 l 1,17,-1
 510 842 l 1,18,-1
 512 842 l 1,19,-1
 521 924 l 1,20,-1
 589 924 l 1,21,-1
 579 830 l 1,22,-1
 479 775 l 1,23,-1
 346 857 l 1,12,-1
EndSplineSet
EndChar

StartChar: Ograve
Encoding: 210 210 139
Width: 705
GlyphClass: 2
Flags: W
LayerCount: 2
Fore
SplineSet
621 62 m 1,0,-1
 498 -5 l 1,1,-1
 205 -5 l 1,2,-1
 96 62 l 1,3,-1
 157 638 l 1,4,-1
 280 705 l 1,5,-1
 573 705 l 1,6,-1
 682 638 l 1,7,-1
 621 62 l 1,0,-1
254 615 m 1,8,-1
 198 85 l 1,9,-1
 523 85 l 1,10,-1
 579 615 l 1,11,-1
 254 615 l 1,8,-1
400 908 m 1,12,-1
 481 780 l 1,13,-1
 401 780 l 1,14,-1
 270 908 l 1,15,-1
 400 908 l 1,12,-1
EndSplineSet
EndChar

StartChar: Oacute
Encoding: 211 211 140
Width: 705
GlyphClass: 2
Flags: W
LayerCount: 2
Fore
SplineSet
621 62 m 1,0,-1
 498 -5 l 1,1,-1
 205 -5 l 1,2,-1
 96 62 l 1,3,-1
 157 638 l 1,4,-1
 280 705 l 1,5,-1
 573 705 l 1,6,-1
 682 638 l 1,7,-1
 621 62 l 1,0,-1
254 615 m 1,8,-1
 198 85 l 1,9,-1
 523 85 l 1,10,-1
 579 615 l 1,11,-1
 254 615 l 1,8,-1
340 780 m 1,12,-1
 447 908 l 1,13,-1
 577 908 l 1,14,-1
 420 780 l 1,15,-1
 340 780 l 1,12,-1
EndSplineSet
EndChar

StartChar: Ocircumflex
Encoding: 212 212 141
Width: 705
GlyphClass: 2
Flags: W
LayerCount: 2
Fore
SplineSet
621 62 m 1,0,-1
 498 -5 l 1,1,-1
 205 -5 l 1,2,-1
 96 62 l 1,3,-1
 157 638 l 1,4,-1
 280 705 l 1,5,-1
 573 705 l 1,6,-1
 682 638 l 1,7,-1
 621 62 l 1,0,-1
254 615 m 1,8,-1
 198 85 l 1,9,-1
 523 85 l 1,10,-1
 579 615 l 1,11,-1
 254 615 l 1,8,-1
373 918 m 1,12,-1
 483 918 l 1,13,-1
 570 780 l 1,14,-1
 495 780 l 1,15,-1
 422 860 l 1,16,-1
 334 780 l 1,17,-1
 259 780 l 1,18,-1
 373 918 l 1,12,-1
EndSplineSet
EndChar

StartChar: Otilde
Encoding: 213 213 142
Width: 705
GlyphClass: 2
Flags: W
LayerCount: 2
Fore
SplineSet
621 62 m 1,0,-1
 498 -5 l 1,1,-1
 205 -5 l 1,2,-1
 96 62 l 1,3,-1
 157 638 l 1,4,-1
 280 705 l 1,5,-1
 573 705 l 1,6,-1
 682 638 l 1,7,-1
 621 62 l 1,0,-1
254 615 m 1,8,-1
 198 85 l 1,9,-1
 523 85 l 1,10,-1
 579 615 l 1,11,-1
 254 615 l 1,8,-1
340 857 m 1,12,-1
 338 857 l 1,13,-1
 329 775 l 1,14,-1
 261 775 l 1,15,-1
 271 869 l 1,16,-1
 371 924 l 1,17,-1
 504 842 l 1,18,-1
 506 842 l 1,19,-1
 515 924 l 1,20,-1
 583 924 l 1,21,-1
 573 830 l 1,22,-1
 473 775 l 1,23,-1
 340 857 l 1,12,-1
EndSplineSet
EndChar

StartChar: Odieresis
Encoding: 214 214 143
Width: 705
GlyphClass: 2
Flags: W
LayerCount: 2
Fore
SplineSet
621 62 m 1,0,-1
 498 -5 l 1,1,-1
 205 -5 l 1,2,-1
 96 62 l 1,3,-1
 157 638 l 1,4,-1
 280 705 l 1,5,-1
 573 705 l 1,6,-1
 682 638 l 1,7,-1
 621 62 l 1,0,-1
254 615 m 1,8,-1
 198 85 l 1,9,-1
 523 85 l 1,10,-1
 579 615 l 1,11,-1
 254 615 l 1,8,-1
258 785 m 1,12,-1
 269 890 l 1,13,-1
 374 890 l 1,14,-1
 363 785 l 1,15,-1
 258 785 l 1,12,-1
477 785 m 1,16,-1
 488 890 l 1,17,-1
 593 890 l 1,18,-1
 582 785 l 1,19,-1
 477 785 l 1,16,-1
EndSplineSet
EndChar

StartChar: multiply
Encoding: 215 215 144
Width: 610
GlyphClass: 2
Flags: W
LayerCount: 2
Fore
SplineSet
178 495 m 1,0,-1
 338 316 l 1,1,-1
 536 495 l 1,2,-1
 595 429 l 1,3,-1
 397 250 l 1,4,-1
 557 71 l 1,5,-1
 484 5 l 1,6,-1
 324 184 l 1,7,-1
 126 5 l 1,8,-1
 67 71 l 1,9,-1
 265 250 l 1,10,-1
 105 429 l 1,11,-1
 178 495 l 1,0,-1
EndSplineSet
EndChar

StartChar: Oslash
Encoding: 216 216 145
Width: 705
GlyphClass: 2
Flags: W
LayerCount: 2
Fore
SplineSet
621 62 m 1,0,-1
 498 -5 l 1,1,-1
 205 -5 l 1,2,-1
 96 62 l 1,3,-1
 157 638 l 1,4,-1
 280 705 l 1,5,-1
 573 705 l 1,6,-1
 682 638 l 1,7,-1
 621 62 l 1,0,-1
254 615 m 1,8,-1
 205 150 l 1,9,-1
 539 615 l 1,10,-1
 254 615 l 1,8,-1
238 85 m 1,11,-1
 523 85 l 1,12,-1
 572 550 l 1,13,-1
 238 85 l 1,11,-1
EndSplineSet
EndChar

StartChar: Ugrave
Encoding: 217 217 146
Width: 705
GlyphClass: 2
Flags: W
LayerCount: 2
Fore
SplineSet
588 700 m 1,0,-1
 688 700 l 1,1,-1
 621 62 l 1,2,-1
 498 -5 l 1,3,-1
 205 -5 l 1,4,-1
 96 62 l 1,5,-1
 163 700 l 1,6,-1
 263 700 l 1,7,-1
 199 95 l 1,8,-1
 524 95 l 1,9,-1
 588 700 l 1,0,-1
380 908 m 1,10,-1
 461 780 l 1,11,-1
 381 780 l 1,12,-1
 250 908 l 1,13,-1
 380 908 l 1,10,-1
EndSplineSet
EndChar

StartChar: Uacute
Encoding: 218 218 147
Width: 705
GlyphClass: 2
Flags: W
LayerCount: 2
Fore
SplineSet
588 700 m 1,0,-1
 688 700 l 1,1,-1
 621 62 l 1,2,-1
 498 -5 l 1,3,-1
 205 -5 l 1,4,-1
 96 62 l 1,5,-1
 163 700 l 1,6,-1
 263 700 l 1,7,-1
 199 95 l 1,8,-1
 524 95 l 1,9,-1
 588 700 l 1,0,-1
357 780 m 1,10,-1
 464 908 l 1,11,-1
 594 908 l 1,12,-1
 437 780 l 1,13,-1
 357 780 l 1,10,-1
EndSplineSet
EndChar

StartChar: Ucircumflex
Encoding: 219 219 148
Width: 705
GlyphClass: 2
Flags: W
LayerCount: 2
Fore
SplineSet
588 700 m 1,0,-1
 688 700 l 1,1,-1
 621 62 l 1,2,-1
 498 -5 l 1,3,-1
 205 -5 l 1,4,-1
 96 62 l 1,5,-1
 163 700 l 1,6,-1
 263 700 l 1,7,-1
 199 95 l 1,8,-1
 524 95 l 1,9,-1
 588 700 l 1,0,-1
373 918 m 1,10,-1
 483 918 l 1,11,-1
 570 780 l 1,12,-1
 495 780 l 1,13,-1
 422 860 l 1,14,-1
 334 780 l 1,15,-1
 259 780 l 1,16,-1
 373 918 l 1,10,-1
EndSplineSet
EndChar

StartChar: Udieresis
Encoding: 220 220 149
Width: 705
GlyphClass: 2
Flags: W
LayerCount: 2
Fore
SplineSet
588 700 m 1,0,-1
 688 700 l 1,1,-1
 621 62 l 1,2,-1
 498 -5 l 1,3,-1
 205 -5 l 1,4,-1
 96 62 l 1,5,-1
 163 700 l 1,6,-1
 263 700 l 1,7,-1
 199 95 l 1,8,-1
 524 95 l 1,9,-1
 588 700 l 1,0,-1
252 785 m 1,10,-1
 263 890 l 1,11,-1
 368 890 l 1,12,-1
 357 785 l 1,13,-1
 252 785 l 1,10,-1
471 785 m 1,14,-1
 482 890 l 1,15,-1
 587 890 l 1,16,-1
 576 785 l 1,17,-1
 471 785 l 1,14,-1
EndSplineSet
EndChar

StartChar: Yacute
Encoding: 221 221 150
Width: 611
GlyphClass: 2
Flags: W
LayerCount: 2
Fore
SplineSet
255 0 m 1,0,-1
 287 309 l 1,1,-1
 93 700 l 1,2,-1
 205 700 l 1,3,-1
 346 402 l 1,4,-1
 348 402 l 1,5,-1
 552 700 l 1,6,-1
 664 700 l 1,7,-1
 387 308 l 1,8,-1
 355 0 l 1,9,-1
 255 0 l 1,0,-1
317 780 m 1,10,-1
 424 908 l 1,11,-1
 554 908 l 1,12,-1
 397 780 l 1,13,-1
 317 780 l 1,10,-1
EndSplineSet
EndChar

StartChar: Thorn
Encoding: 222 222 151
Width: 635
GlyphClass: 2
Flags: W
LayerCount: 2
Fore
SplineSet
90 0 m 1,0,-1
 166 730 l 1,1,-1
 266 730 l 1,2,-1
 251 587 l 1,3,-1
 500 587 l 1,4,-1
 609 520 l 1,5,-1
 578 223 l 1,6,-1
 455 156 l 1,7,-1
 206 156 l 1,8,-1
 190 0 l 1,9,-1
 90 0 l 1,0,-1
242 497 m 1,10,-1
 215 246 l 1,11,-1
 480 246 l 1,12,-1
 507 497 l 1,13,-1
 242 497 l 1,10,-1
EndSplineSet
EndChar

StartChar: germandbls
Encoding: 223 223 152
Width: 665
GlyphClass: 2
Flags: W
LayerCount: 2
Fore
SplineSet
63 317 m 1,0,-1
 72 407 l 1,1,-1
 162 407 l 1,2,-1
 186 633 l 1,3,-1
 309 700 l 1,4,-1
 512 700 l 1,5,-1
 621 633 l 1,6,-1
 598 413 l 1,7,-1
 519 370 l 1,8,-1
 617 311 l 1,9,-1
 592 67 l 1,10,-1
 469 0 l 1,11,-1
 293 0 l 1,12,-1
 302 90 l 1,13,-1
 494 90 l 1,14,-1
 518 317 l 1,15,-1
 326 317 l 1,16,-1
 335 407 l 1,17,-1
 497 407 l 1,18,-1
 519 610 l 1,19,-1
 284 610 l 1,20,-1
 198 -200 l 1,21,-1
 98 -200 l 1,22,-1
 153 317 l 1,23,-1
 63 317 l 1,0,-1
EndSplineSet
EndChar

StartChar: agrave
Encoding: 224 224 153
Width: 575
GlyphClass: 2
Flags: W
LayerCount: 2
Fore
SplineSet
220 418 m 1,0,-1
 185 82 l 1,1,-1
 406 82 l 1,2,-1
 441 418 l 1,3,-1
 220 418 l 1,0,-1
548 505 m 1,4,-1
 494 -5 l 1,5,-1
 468 -5 l 1,6,-1
 401 36 l 1,7,-1
 326 -5 l 1,8,-1
 195 -5 l 1,9,-1
 86 62 l 1,10,-1
 126 438 l 1,11,-1
 249 505 l 1,12,-1
 380 505 l 1,13,-1
 446 464 l 1,14,-1
 522 505 l 1,15,-1
 548 505 l 1,4,-1
360 718 m 1,16,-1
 441 590 l 1,17,-1
 361 590 l 1,18,-1
 230 718 l 1,19,-1
 360 718 l 1,16,-1
EndSplineSet
EndChar

StartChar: aacute
Encoding: 225 225 154
Width: 575
GlyphClass: 2
Flags: W
LayerCount: 2
Fore
SplineSet
220 418 m 1,0,-1
 185 82 l 1,1,-1
 406 82 l 1,2,-1
 441 418 l 1,3,-1
 220 418 l 1,0,-1
548 505 m 1,4,-1
 494 -5 l 1,5,-1
 468 -5 l 1,6,-1
 401 36 l 1,7,-1
 326 -5 l 1,8,-1
 195 -5 l 1,9,-1
 86 62 l 1,10,-1
 126 438 l 1,11,-1
 249 505 l 1,12,-1
 380 505 l 1,13,-1
 446 464 l 1,14,-1
 522 505 l 1,15,-1
 548 505 l 1,4,-1
267 590 m 1,16,-1
 374 718 l 1,17,-1
 504 718 l 1,18,-1
 347 590 l 1,19,-1
 267 590 l 1,16,-1
EndSplineSet
EndChar

StartChar: acircumflex
Encoding: 226 226 155
Width: 575
GlyphClass: 2
Flags: W
LayerCount: 2
Fore
SplineSet
220 418 m 1,0,-1
 185 82 l 1,1,-1
 406 82 l 1,2,-1
 441 418 l 1,3,-1
 220 418 l 1,0,-1
548 505 m 1,4,-1
 494 -5 l 1,5,-1
 468 -5 l 1,6,-1
 401 36 l 1,7,-1
 326 -5 l 1,8,-1
 195 -5 l 1,9,-1
 86 62 l 1,10,-1
 126 438 l 1,11,-1
 249 505 l 1,12,-1
 380 505 l 1,13,-1
 446 464 l 1,14,-1
 522 505 l 1,15,-1
 548 505 l 1,4,-1
306 728 m 1,16,-1
 416 728 l 1,17,-1
 503 590 l 1,18,-1
 428 590 l 1,19,-1
 355 670 l 1,20,-1
 267 590 l 1,21,-1
 192 590 l 1,22,-1
 306 728 l 1,16,-1
EndSplineSet
EndChar

StartChar: atilde
Encoding: 227 227 156
Width: 575
GlyphClass: 2
Flags: W
LayerCount: 2
Fore
SplineSet
220 418 m 1,0,-1
 185 82 l 1,1,-1
 406 82 l 1,2,-1
 441 418 l 1,3,-1
 220 418 l 1,0,-1
548 505 m 1,4,-1
 494 -5 l 1,5,-1
 468 -5 l 1,6,-1
 401 36 l 1,7,-1
 326 -5 l 1,8,-1
 195 -5 l 1,9,-1
 86 62 l 1,10,-1
 126 438 l 1,11,-1
 249 505 l 1,12,-1
 380 505 l 1,13,-1
 446 464 l 1,14,-1
 522 505 l 1,15,-1
 548 505 l 1,4,-1
270 667 m 1,16,-1
 268 667 l 1,17,-1
 259 585 l 1,18,-1
 191 585 l 1,19,-1
 201 679 l 1,20,-1
 301 734 l 1,21,-1
 434 652 l 1,22,-1
 436 652 l 1,23,-1
 445 734 l 1,24,-1
 513 734 l 1,25,-1
 503 640 l 1,26,-1
 403 585 l 1,27,-1
 270 667 l 1,16,-1
EndSplineSet
EndChar

StartChar: adieresis
Encoding: 228 228 157
Width: 575
GlyphClass: 2
Flags: W
LayerCount: 2
Fore
SplineSet
220 418 m 1,0,-1
 185 82 l 1,1,-1
 406 82 l 1,2,-1
 441 418 l 1,3,-1
 220 418 l 1,0,-1
548 505 m 1,4,-1
 494 -5 l 1,5,-1
 468 -5 l 1,6,-1
 401 36 l 1,7,-1
 326 -5 l 1,8,-1
 195 -5 l 1,9,-1
 86 62 l 1,10,-1
 126 438 l 1,11,-1
 249 505 l 1,12,-1
 380 505 l 1,13,-1
 446 464 l 1,14,-1
 522 505 l 1,15,-1
 548 505 l 1,4,-1
192 595 m 1,16,-1
 203 700 l 1,17,-1
 308 700 l 1,18,-1
 297 595 l 1,19,-1
 192 595 l 1,16,-1
411 595 m 1,20,-1
 422 700 l 1,21,-1
 527 700 l 1,22,-1
 516 595 l 1,23,-1
 411 595 l 1,20,-1
EndSplineSet
EndChar

StartChar: aring
Encoding: 229 229 158
Width: 575
GlyphClass: 2
Flags: W
LayerCount: 2
Fore
SplineSet
220 418 m 1,0,-1
 185 82 l 1,1,-1
 406 82 l 1,2,-1
 441 418 l 1,3,-1
 220 418 l 1,0,-1
548 505 m 1,4,-1
 494 -5 l 1,5,-1
 468 -5 l 1,6,-1
 401 36 l 1,7,-1
 326 -5 l 1,8,-1
 195 -5 l 1,9,-1
 86 62 l 1,10,-1
 126 438 l 1,11,-1
 249 505 l 1,12,-1
 380 505 l 1,13,-1
 446 464 l 1,14,-1
 522 505 l 1,15,-1
 548 505 l 1,4,-1
488 617 m 1,16,-1
 401 570 l 1,17,-1
 280 570 l 1,18,-1
 203 617 l 1,19,-1
 221 786 l 1,20,-1
 308 833 l 1,21,-1
 429 833 l 1,22,-1
 506 786 l 1,23,-1
 488 617 l 1,16,-1
294 768 m 1,24,-1
 280 635 l 1,25,-1
 415 635 l 1,26,-1
 429 768 l 1,27,-1
 294 768 l 1,24,-1
EndSplineSet
EndChar

StartChar: ae
Encoding: 230 230 159
Width: 833
GlyphClass: 2
Flags: W
LayerCount: 2
Fore
SplineSet
762 87 m 1,0,-1
 753 0 l 1,1,-1
 474 0 l 1,2,-1
 389 52 l 1,3,-1
 286 -5 l 1,4,-1
 175 -5 l 1,5,-1
 66 62 l 1,6,-1
 83 225 l 1,7,-1
 206 292 l 1,8,-1
 388 292 l 1,9,-1
 401 413 l 1,10,-1
 153 413 l 1,11,-1
 162 500 l 1,12,-1
 391 500 l 1,13,-1
 450 463 l 1,14,-1
 527 505 l 1,15,-1
 690 505 l 1,16,-1
 799 438 l 1,17,-1
 775 216 l 1,18,-1
 477 216 l 1,19,-1
 464 87 l 1,20,-1
 762 87 l 1,0,-1
178 205 m 1,21,-1
 165 82 l 1,22,-1
 366 82 l 1,23,-1
 379 205 l 1,24,-1
 178 205 l 1,21,-1
498 418 m 1,25,-1
 486 303 l 1,26,-1
 687 303 l 1,27,-1
 699 418 l 1,28,-1
 498 418 l 1,25,-1
EndSplineSet
EndChar

StartChar: ccedilla
Encoding: 231 231 160
Width: 515
GlyphClass: 2
Flags: W
LayerCount: 2
Fore
SplineSet
269 0 m 1,0,-1
 196 0 l 1,1,-1
 87 67 l 1,2,-1
 125 433 l 1,3,-1
 248 500 l 1,4,-1
 507 500 l 1,5,-1
 498 413 l 1,6,-1
 220 413 l 1,7,-1
 186 87 l 1,8,-1
 464 87 l 1,9,-1
 455 0 l 1,10,-1
 323 0 l 1,11,-1
 297 -37 l 1,12,-1
 359 -75 l 1,13,-1
 351 -149 l 1,14,-1
 260 -199 l 1,15,-1
 190 -199 l 1,16,-1
 195 -149 l 1,17,-1
 294 -149 l 1,18,-1
 301 -84 l 1,19,-1
 212 -84 l 1,20,-1
 269 0 l 1,0,-1
EndSplineSet
EndChar

StartChar: egrave
Encoding: 232 232 161
Width: 555
GlyphClass: 2
Flags: W
LayerCount: 2
Fore
SplineSet
484 87 m 1,0,-1
 475 0 l 1,1,-1
 196 0 l 1,2,-1
 87 67 l 1,3,-1
 126 438 l 1,4,-1
 249 505 l 1,5,-1
 412 505 l 1,6,-1
 521 438 l 1,7,-1
 497 216 l 1,8,-1
 199 216 l 1,9,-1
 186 87 l 1,10,-1
 484 87 l 1,0,-1
220 418 m 1,11,-1
 208 303 l 1,12,-1
 409 303 l 1,13,-1
 421 418 l 1,14,-1
 220 418 l 1,11,-1
360 718 m 1,15,-1
 441 590 l 1,16,-1
 361 590 l 1,17,-1
 230 718 l 1,18,-1
 360 718 l 1,15,-1
EndSplineSet
EndChar

StartChar: eacute
Encoding: 233 233 162
Width: 555
GlyphClass: 2
Flags: W
LayerCount: 2
Fore
SplineSet
484 87 m 1,0,-1
 475 0 l 1,1,-1
 196 0 l 1,2,-1
 87 67 l 1,3,-1
 126 438 l 1,4,-1
 249 505 l 1,5,-1
 412 505 l 1,6,-1
 521 438 l 1,7,-1
 497 216 l 1,8,-1
 199 216 l 1,9,-1
 186 87 l 1,10,-1
 484 87 l 1,0,-1
220 418 m 1,11,-1
 208 303 l 1,12,-1
 409 303 l 1,13,-1
 421 418 l 1,14,-1
 220 418 l 1,11,-1
247 590 m 1,15,-1
 354 718 l 1,16,-1
 484 718 l 1,17,-1
 327 590 l 1,18,-1
 247 590 l 1,15,-1
EndSplineSet
EndChar

StartChar: ecircumflex
Encoding: 234 234 163
Width: 555
GlyphClass: 2
Flags: W
LayerCount: 2
Fore
SplineSet
484 87 m 1,0,-1
 475 0 l 1,1,-1
 196 0 l 1,2,-1
 87 67 l 1,3,-1
 126 438 l 1,4,-1
 249 505 l 1,5,-1
 412 505 l 1,6,-1
 521 438 l 1,7,-1
 497 216 l 1,8,-1
 199 216 l 1,9,-1
 186 87 l 1,10,-1
 484 87 l 1,0,-1
220 418 m 1,11,-1
 208 303 l 1,12,-1
 409 303 l 1,13,-1
 421 418 l 1,14,-1
 220 418 l 1,11,-1
303 728 m 1,15,-1
 413 728 l 1,16,-1
 500 590 l 1,17,-1
 425 590 l 1,18,-1
 352 670 l 1,19,-1
 264 590 l 1,20,-1
 189 590 l 1,21,-1
 303 728 l 1,15,-1
EndSplineSet
EndChar

StartChar: edieresis
Encoding: 235 235 164
Width: 555
GlyphClass: 2
Flags: W
LayerCount: 2
Fore
SplineSet
484 87 m 1,0,-1
 475 0 l 1,1,-1
 196 0 l 1,2,-1
 87 67 l 1,3,-1
 126 438 l 1,4,-1
 249 505 l 1,5,-1
 412 505 l 1,6,-1
 521 438 l 1,7,-1
 497 216 l 1,8,-1
 199 216 l 1,9,-1
 186 87 l 1,10,-1
 484 87 l 1,0,-1
220 418 m 1,11,-1
 208 303 l 1,12,-1
 409 303 l 1,13,-1
 421 418 l 1,14,-1
 220 418 l 1,11,-1
175 595 m 1,15,-1
 186 700 l 1,16,-1
 291 700 l 1,17,-1
 280 595 l 1,18,-1
 175 595 l 1,15,-1
394 595 m 1,19,-1
 405 700 l 1,20,-1
 510 700 l 1,21,-1
 499 595 l 1,22,-1
 394 595 l 1,19,-1
EndSplineSet
EndChar

StartChar: igrave
Encoding: 236 236 165
Width: 257
GlyphClass: 2
Flags: W
LayerCount: 2
Fore
SplineSet
229 500 m 1,0,-1
 177 0 l 1,1,-1
 80 0 l 1,2,-1
 132 500 l 1,3,-1
 229 500 l 1,0,-1
178 718 m 1,4,-1
 259 590 l 1,5,-1
 179 590 l 1,6,-1
 48 718 l 1,7,-1
 178 718 l 1,4,-1
EndSplineSet
EndChar

StartChar: iacute
Encoding: 237 237 166
Width: 257
GlyphClass: 2
Flags: W
LayerCount: 2
Fore
SplineSet
229 500 m 1,0,-1
 177 0 l 1,1,-1
 80 0 l 1,2,-1
 132 500 l 1,3,-1
 229 500 l 1,0,-1
122 590 m 1,4,-1
 229 718 l 1,5,-1
 359 718 l 1,6,-1
 202 590 l 1,7,-1
 122 590 l 1,4,-1
EndSplineSet
EndChar

StartChar: icircumflex
Encoding: 238 238 167
Width: 257
GlyphClass: 2
Flags: W
LayerCount: 2
Fore
SplineSet
229 500 m 1,0,-1
 177 0 l 1,1,-1
 80 0 l 1,2,-1
 132 500 l 1,3,-1
 229 500 l 1,0,-1
149 728 m 1,4,-1
 259 728 l 1,5,-1
 346 590 l 1,6,-1
 271 590 l 1,7,-1
 198 670 l 1,8,-1
 110 590 l 1,9,-1
 35 590 l 1,10,-1
 149 728 l 1,4,-1
EndSplineSet
EndChar

StartChar: idieresis
Encoding: 239 239 168
Width: 257
GlyphClass: 2
Flags: W
LayerCount: 2
Fore
SplineSet
229 500 m 1,0,-1
 177 0 l 1,1,-1
 80 0 l 1,2,-1
 132 500 l 1,3,-1
 229 500 l 1,0,-1
29 595 m 1,4,-1
 40 700 l 1,5,-1
 145 700 l 1,6,-1
 134 595 l 1,7,-1
 29 595 l 1,4,-1
248 595 m 1,8,-1
 259 700 l 1,9,-1
 364 700 l 1,10,-1
 353 595 l 1,11,-1
 248 595 l 1,8,-1
EndSplineSet
EndChar

StartChar: eth
Encoding: 240 240 169
Width: 635
GlyphClass: 2
Flags: W
LayerCount: 2
Fore
SplineSet
391 487 m 1,0,-1
 398 561 l 1,1,-1
 504 561 l 1,2,-1
 510 615 l 1,3,-1
 271 615 l 1,4,-1
 281 705 l 1,5,-1
 504 705 l 1,6,-1
 613 638 l 1,7,-1
 604 561 l 1,8,-1
 674 561 l 1,9,-1
 667 487 l 1,10,-1
 597 487 l 1,11,-1
 552 62 l 1,12,-1
 429 -5 l 1,13,-1
 206 -5 l 1,14,-1
 97 62 l 1,15,-1
 129 363 l 1,16,-1
 252 430 l 1,17,-1
 420 430 l 1,18,-1
 486 389 l 1,19,-1
 497 487 l 1,20,-1
 391 487 l 1,0,-1
454 85 m 1,21,-1
 481 340 l 1,22,-1
 226 340 l 1,23,-1
 199 85 l 1,24,-1
 454 85 l 1,21,-1
EndSplineSet
EndChar

StartChar: ntilde
Encoding: 241 241 170
Width: 585
GlyphClass: 2
Flags: W
LayerCount: 2
Fore
SplineSet
551 438 m 1,0,-1
 505 0 l 1,1,-1
 408 0 l 1,2,-1
 451 418 l 1,3,-1
 220 418 l 1,4,-1
 177 0 l 1,5,-1
 80 0 l 1,6,-1
 133 505 l 1,7,-1
 206 505 l 1,8,-1
 225 464 l 1,9,-1
 301 505 l 1,10,-1
 442 505 l 1,11,-1
 551 438 l 1,0,-1
279 667 m 1,12,-1
 277 667 l 1,13,-1
 268 585 l 1,14,-1
 200 585 l 1,15,-1
 210 679 l 1,16,-1
 310 734 l 1,17,-1
 443 652 l 1,18,-1
 445 652 l 1,19,-1
 454 734 l 1,20,-1
 522 734 l 1,21,-1
 512 640 l 1,22,-1
 412 585 l 1,23,-1
 279 667 l 1,12,-1
EndSplineSet
EndChar

StartChar: ograve
Encoding: 242 242 171
Width: 585
GlyphClass: 2
Flags: W
LayerCount: 2
Fore
SplineSet
511 62 m 1,0,-1
 388 -5 l 1,1,-1
 195 -5 l 1,2,-1
 86 62 l 1,3,-1
 126 438 l 1,4,-1
 249 505 l 1,5,-1
 442 505 l 1,6,-1
 551 438 l 1,7,-1
 511 62 l 1,0,-1
220 418 m 1,8,-1
 185 82 l 1,9,-1
 416 82 l 1,10,-1
 451 418 l 1,11,-1
 220 418 l 1,8,-1
367 718 m 1,12,-1
 448 590 l 1,13,-1
 368 590 l 1,14,-1
 237 718 l 1,15,-1
 367 718 l 1,12,-1
EndSplineSet
EndChar

StartChar: oacute
Encoding: 243 243 172
Width: 585
GlyphClass: 2
Flags: W
LayerCount: 2
Fore
SplineSet
511 62 m 1,0,-1
 388 -5 l 1,1,-1
 195 -5 l 1,2,-1
 86 62 l 1,3,-1
 126 438 l 1,4,-1
 249 505 l 1,5,-1
 442 505 l 1,6,-1
 551 438 l 1,7,-1
 511 62 l 1,0,-1
220 418 m 1,8,-1
 185 82 l 1,9,-1
 416 82 l 1,10,-1
 451 418 l 1,11,-1
 220 418 l 1,8,-1
280 590 m 1,12,-1
 387 718 l 1,13,-1
 517 718 l 1,14,-1
 360 590 l 1,15,-1
 280 590 l 1,12,-1
EndSplineSet
EndChar

StartChar: ocircumflex
Encoding: 244 244 173
Width: 585
GlyphClass: 2
Flags: W
LayerCount: 2
Fore
SplineSet
511 62 m 1,0,-1
 388 -5 l 1,1,-1
 195 -5 l 1,2,-1
 86 62 l 1,3,-1
 126 438 l 1,4,-1
 249 505 l 1,5,-1
 442 505 l 1,6,-1
 551 438 l 1,7,-1
 511 62 l 1,0,-1
220 418 m 1,8,-1
 185 82 l 1,9,-1
 416 82 l 1,10,-1
 451 418 l 1,11,-1
 220 418 l 1,8,-1
316 728 m 1,12,-1
 426 728 l 1,13,-1
 513 590 l 1,14,-1
 438 590 l 1,15,-1
 365 670 l 1,16,-1
 277 590 l 1,17,-1
 202 590 l 1,18,-1
 316 728 l 1,12,-1
EndSplineSet
EndChar

StartChar: otilde
Encoding: 245 245 174
Width: 585
GlyphClass: 2
Flags: W
LayerCount: 2
Fore
SplineSet
511 62 m 1,0,-1
 388 -5 l 1,1,-1
 195 -5 l 1,2,-1
 86 62 l 1,3,-1
 126 438 l 1,4,-1
 249 505 l 1,5,-1
 442 505 l 1,6,-1
 551 438 l 1,7,-1
 511 62 l 1,0,-1
220 418 m 1,8,-1
 185 82 l 1,9,-1
 416 82 l 1,10,-1
 451 418 l 1,11,-1
 220 418 l 1,8,-1
283 667 m 1,12,-1
 281 667 l 1,13,-1
 272 585 l 1,14,-1
 204 585 l 1,15,-1
 214 679 l 1,16,-1
 314 734 l 1,17,-1
 447 652 l 1,18,-1
 449 652 l 1,19,-1
 458 734 l 1,20,-1
 526 734 l 1,21,-1
 516 640 l 1,22,-1
 416 585 l 1,23,-1
 283 667 l 1,12,-1
EndSplineSet
EndChar

StartChar: odieresis
Encoding: 246 246 175
Width: 585
GlyphClass: 2
Flags: W
LayerCount: 2
Fore
SplineSet
511 62 m 1,0,-1
 388 -5 l 1,1,-1
 195 -5 l 1,2,-1
 86 62 l 1,3,-1
 126 438 l 1,4,-1
 249 505 l 1,5,-1
 442 505 l 1,6,-1
 551 438 l 1,7,-1
 511 62 l 1,0,-1
220 418 m 1,8,-1
 185 82 l 1,9,-1
 416 82 l 1,10,-1
 451 418 l 1,11,-1
 220 418 l 1,8,-1
193 595 m 1,12,-1
 204 700 l 1,13,-1
 309 700 l 1,14,-1
 298 595 l 1,15,-1
 193 595 l 1,12,-1
412 595 m 1,16,-1
 423 700 l 1,17,-1
 528 700 l 1,18,-1
 517 595 l 1,19,-1
 412 595 l 1,16,-1
EndSplineSet
EndChar

StartChar: divide
Encoding: 247 247 176
Width: 600
GlyphClass: 2
Flags: W
LayerCount: 2
Fore
SplineSet
581 297 m 1,0,-1
 571 203 l 1,1,-1
 71 203 l 1,2,-1
 81 297 l 1,3,-1
 581 297 l 1,0,-1
233 -10 m 1,4,-1
 247 120 l 1,5,-1
 377 120 l 1,6,-1
 363 -10 l 1,7,-1
 233 -10 l 1,4,-1
274 380 m 1,8,-1
 288 510 l 1,9,-1
 418 510 l 1,10,-1
 404 380 l 1,11,-1
 274 380 l 1,8,-1
EndSplineSet
EndChar

StartChar: oslash
Encoding: 248 248 177
Width: 585
GlyphClass: 2
Flags: W
LayerCount: 2
Fore
SplineSet
511 62 m 1,0,-1
 388 -5 l 1,1,-1
 195 -5 l 1,2,-1
 86 62 l 1,3,-1
 126 438 l 1,4,-1
 249 505 l 1,5,-1
 442 505 l 1,6,-1
 551 438 l 1,7,-1
 511 62 l 1,0,-1
220 418 m 1,8,-1
 191 140 l 1,9,-1
 411 418 l 1,10,-1
 220 418 l 1,8,-1
225 82 m 1,11,-1
 416 82 l 1,12,-1
 445 360 l 1,13,-1
 225 82 l 1,11,-1
EndSplineSet
EndChar

StartChar: ugrave
Encoding: 249 249 178
Width: 585
GlyphClass: 2
Flags: W
LayerCount: 2
Fore
SplineSet
86 62 m 1,0,-1
 132 500 l 1,1,-1
 229 500 l 1,2,-1
 185 82 l 1,3,-1
 416 82 l 1,4,-1
 460 500 l 1,5,-1
 557 500 l 1,6,-1
 504 -5 l 1,7,-1
 431 -5 l 1,8,-1
 411 36 l 1,9,-1
 336 -5 l 1,10,-1
 195 -5 l 1,11,-1
 86 62 l 1,0,-1
350 718 m 1,12,-1
 431 590 l 1,13,-1
 351 590 l 1,14,-1
 220 718 l 1,15,-1
 350 718 l 1,12,-1
EndSplineSet
EndChar

StartChar: uacute
Encoding: 250 250 179
Width: 585
GlyphClass: 2
Flags: W
LayerCount: 2
Fore
SplineSet
86 62 m 1,0,-1
 132 500 l 1,1,-1
 229 500 l 1,2,-1
 185 82 l 1,3,-1
 416 82 l 1,4,-1
 460 500 l 1,5,-1
 557 500 l 1,6,-1
 504 -5 l 1,7,-1
 431 -5 l 1,8,-1
 411 36 l 1,9,-1
 336 -5 l 1,10,-1
 195 -5 l 1,11,-1
 86 62 l 1,0,-1
297 590 m 1,12,-1
 404 718 l 1,13,-1
 534 718 l 1,14,-1
 377 590 l 1,15,-1
 297 590 l 1,12,-1
EndSplineSet
EndChar

StartChar: ucircumflex
Encoding: 251 251 180
Width: 585
GlyphClass: 2
Flags: W
LayerCount: 2
Fore
SplineSet
86 62 m 1,0,-1
 132 500 l 1,1,-1
 229 500 l 1,2,-1
 185 82 l 1,3,-1
 416 82 l 1,4,-1
 460 500 l 1,5,-1
 557 500 l 1,6,-1
 504 -5 l 1,7,-1
 431 -5 l 1,8,-1
 411 36 l 1,9,-1
 336 -5 l 1,10,-1
 195 -5 l 1,11,-1
 86 62 l 1,0,-1
314 728 m 1,12,-1
 424 728 l 1,13,-1
 511 590 l 1,14,-1
 436 590 l 1,15,-1
 363 670 l 1,16,-1
 275 590 l 1,17,-1
 200 590 l 1,18,-1
 314 728 l 1,12,-1
EndSplineSet
EndChar

StartChar: udieresis
Encoding: 252 252 181
Width: 585
GlyphClass: 2
Flags: W
LayerCount: 2
Fore
SplineSet
86 62 m 1,0,-1
 132 500 l 1,1,-1
 229 500 l 1,2,-1
 185 82 l 1,3,-1
 416 82 l 1,4,-1
 460 500 l 1,5,-1
 557 500 l 1,6,-1
 504 -5 l 1,7,-1
 431 -5 l 1,8,-1
 411 36 l 1,9,-1
 336 -5 l 1,10,-1
 195 -5 l 1,11,-1
 86 62 l 1,0,-1
192 595 m 1,12,-1
 203 700 l 1,13,-1
 308 700 l 1,14,-1
 297 595 l 1,15,-1
 192 595 l 1,12,-1
411 595 m 1,16,-1
 422 700 l 1,17,-1
 527 700 l 1,18,-1
 516 595 l 1,19,-1
 411 595 l 1,16,-1
EndSplineSet
EndChar

StartChar: yacute
Encoding: 253 253 182
Width: 519
GlyphClass: 2
Flags: W
LayerCount: 2
Fore
SplineSet
104 -200 m 1,0,-1
 215 23 l 1,1,-1
 72 500 l 1,2,-1
 169 500 l 1,3,-1
 274 144 l 1,4,-1
 276 144 l 1,5,-1
 454 500 l 1,6,-1
 551 500 l 1,7,-1
 199 -200 l 1,8,-1
 104 -200 l 1,0,-1
257 590 m 1,9,-1
 364 718 l 1,10,-1
 494 718 l 1,11,-1
 337 590 l 1,12,-1
 257 590 l 1,9,-1
EndSplineSet
EndChar

StartChar: thorn
Encoding: 254 254 183
Width: 595
GlyphClass: 2
Flags: W
LayerCount: 2
Fore
SplineSet
156 730 m 1,0,-1
 253 730 l 1,1,-1
 225 464 l 1,2,-1
 301 505 l 1,3,-1
 452 505 l 1,4,-1
 561 438 l 1,5,-1
 521 62 l 1,6,-1
 398 -5 l 1,7,-1
 247 -5 l 1,8,-1
 180 36 l 1,9,-1
 155 -200 l 1,10,-1
 58 -200 l 1,11,-1
 156 730 l 1,0,-1
220 418 m 1,12,-1
 185 82 l 1,13,-1
 426 82 l 1,14,-1
 461 418 l 1,15,-1
 220 418 l 1,12,-1
EndSplineSet
EndChar

StartChar: ydieresis
Encoding: 255 255 184
Width: 519
GlyphClass: 2
Flags: W
LayerCount: 2
Fore
SplineSet
104 -200 m 1,0,-1
 215 23 l 1,1,-1
 72 500 l 1,2,-1
 169 500 l 1,3,-1
 274 144 l 1,4,-1
 276 144 l 1,5,-1
 454 500 l 1,6,-1
 551 500 l 1,7,-1
 199 -200 l 1,8,-1
 104 -200 l 1,0,-1
160 595 m 1,9,-1
 171 700 l 1,10,-1
 276 700 l 1,11,-1
 265 595 l 1,12,-1
 160 595 l 1,9,-1
379 595 m 1,13,-1
 390 700 l 1,14,-1
 495 700 l 1,15,-1
 484 595 l 1,16,-1
 379 595 l 1,13,-1
EndSplineSet
EndChar

StartChar: hbar
Encoding: 295 295 185
Width: 595
GlyphClass: 2
Flags: W
LayerCount: 2
Fore
SplineSet
177 0 m 1,0,-1
 80 0 l 1,1,-1
 141 585 l 1,2,-1
 71 585 l 1,3,-1
 79 659 l 1,4,-1
 148 659 l 1,5,-1
 156 730 l 1,6,-1
 253 730 l 1,7,-1
 245 659 l 1,8,-1
 395 659 l 1,9,-1
 387 585 l 1,10,-1
 237 585 l 1,11,-1
 225 464 l 1,12,-1
 301 505 l 1,13,-1
 452 505 l 1,14,-1
 561 438 l 1,15,-1
 515 0 l 1,16,-1
 418 0 l 1,17,-1
 461 418 l 1,18,-1
 220 418 l 1,19,-1
 177 0 l 1,0,-1
EndSplineSet
EndChar

StartChar: itilde
Encoding: 297 297 187
Width: 257
GlyphClass: 2
Flags: W
LayerCount: 2
Fore
SplineSet
229 500 m 1,0,-1
 177 0 l 1,1,-1
 80 0 l 1,2,-1
 132 500 l 1,3,-1
 229 500 l 1,0,-1
116 667 m 1,4,-1
 114 667 l 1,5,-1
 105 585 l 1,6,-1
 37 585 l 1,7,-1
 47 679 l 1,8,-1
 147 734 l 1,9,-1
 280 652 l 1,10,-1
 282 652 l 1,11,-1
 291 734 l 1,12,-1
 359 734 l 1,13,-1
 349 640 l 1,14,-1
 249 585 l 1,15,-1
 116 667 l 1,4,-1
EndSplineSet
EndChar

StartChar: dotlessi
Encoding: 305 305 188
Width: 257
GlyphClass: 2
Flags: W
LayerCount: 2
Fore
SplineSet
229 500 m 1,0,-1
 177 0 l 1,1,-1
 80 0 l 1,2,-1
 132 500 l 1,3,-1
 229 500 l 1,0,-1
EndSplineSet
EndChar

StartChar: IJ
Encoding: 306 306 189
Width: 815
GlyphClass: 2
Flags: W
LayerCount: 2
Fore
SplineSet
90 0 m 1,0,-1
 163 700 l 1,1,-1
 263 700 l 1,2,-1
 190 0 l 1,3,-1
 90 0 l 1,0,-1
633 85 m 1,4,-1
 698 700 l 1,5,-1
 798 700 l 1,6,-1
 731 62 l 1,7,-1
 608 -5 l 1,8,-1
 415 -5 l 1,9,-1
 306 62 l 1,10,-1
 323 225 l 1,11,-1
 423 225 l 1,12,-1
 408 85 l 1,13,-1
 633 85 l 1,4,-1
EndSplineSet
EndChar

StartChar: ij
Encoding: 307 307 190
Width: 514
GlyphClass: 2
Flags: W
LayerCount: 2
Fore
SplineSet
229 500 m 1,0,-1
 177 0 l 1,1,-1
 80 0 l 1,2,-1
 132 500 l 1,3,-1
 229 500 l 1,0,-1
140 623 m 1,4,-1
 151 730 l 1,5,-1
 258 730 l 1,6,-1
 247 623 l 1,7,-1
 140 623 l 1,4,-1
397 623 m 1,8,-1
 408 730 l 1,9,-1
 515 730 l 1,10,-1
 504 623 l 1,11,-1
 397 623 l 1,8,-1
486 500 m 1,12,-1
 420 -133 l 1,13,-1
 296 -200 l 1,14,-1
 196 -200 l 1,15,-1
 206 -113 l 1,16,-1
 325 -113 l 1,17,-1
 389 500 l 1,18,-1
 486 500 l 1,12,-1
EndSplineSet
EndChar

StartChar: jcircumflex
Encoding: 309 309 192
Width: 257
GlyphClass: 2
Flags: W
LayerCount: 2
Fore
SplineSet
177 500 m 1,0,-1
 177 -133 l 1,1,-1
 61 -200 l 1,2,-1
 -40 -200 l 1,3,-1
 -40 -113 l 1,4,-1
 80 -113 l 1,5,-1
 80 500 l 1,6,-1
 177 500 l 1,0,-1
149 728 m 1,7,-1
 259 728 l 1,8,-1
 346 590 l 1,9,-1
 271 590 l 1,10,-1
 198 670 l 1,11,-1
 110 590 l 1,12,-1
 35 590 l 1,13,-1
 149 728 l 1,7,-1
EndSplineSet
EndChar

StartChar: kcommaaccent
Encoding: 311 311 193
Width: 531
GlyphClass: 2
Flags: W
LayerCount: 2
Fore
SplineSet
253 730 m 1,0,-1
 203 251 l 1,1,-1
 205 251 l 1,2,-1
 437 500 l 1,3,-1
 553 500 l 1,4,-1
 336 274 l 1,5,-1
 531 0 l 1,6,-1
 412 0 l 1,7,-1
 271 205 l 1,8,-1
 189 119 l 1,9,-1
 177 0 l 1,10,-1
 80 0 l 1,11,-1
 156 730 l 1,12,-1
 253 730 l 1,0,-1
194 -335 m 1,13,-1
 224 -55 l 1,14,-1
 344 -55 l 1,15,-1
 340 -89 l 1,16,-1
 228 -335 l 1,17,-1
 194 -335 l 1,13,-1
EndSplineSet
EndChar

StartChar: kgreenlandic
Encoding: 312 312 194
Width: 531
GlyphClass: 2
Flags: W
LayerCount: 2
Fore
SplineSet
229 500 m 1,0,-1
 203 251 l 1,1,-1
 205 251 l 1,2,-1
 437 500 l 1,3,-1
 553 500 l 1,4,-1
 336 274 l 1,5,-1
 531 0 l 1,6,-1
 412 0 l 1,7,-1
 271 205 l 1,8,-1
 189 119 l 1,9,-1
 177 0 l 1,10,-1
 80 0 l 1,11,-1
 132 500 l 1,12,-1
 229 500 l 1,0,-1
EndSplineSet
EndChar

StartChar: Ldotaccent
Encoding: 319 319 195
Width: 479
GlyphClass: 2
Flags: W
LayerCount: 2
Fore
SplineSet
90 0 m 1,0,-1
 163 700 l 1,1,-1
 263 700 l 1,2,-1
 199 90 l 1,3,-1
 458 90 l 1,4,-1
 449 0 l 1,5,-1
 90 0 l 1,0,-1
308 232 m 1,6,-1
 320 352 l 1,7,-1
 440 352 l 1,8,-1
 428 232 l 1,9,-1
 308 232 l 1,6,-1
EndSplineSet
EndChar

StartChar: ldot
Encoding: 320 320 196
Width: 400
GlyphClass: 2
Flags: W
LayerCount: 2
Fore
SplineSet
196 0 m 1,0,-1
 87 67 l 1,1,-1
 156 730 l 1,2,-1
 253 730 l 1,3,-1
 186 87 l 1,4,-1
 306 87 l 1,5,-1
 297 0 l 1,6,-1
 196 0 l 1,0,-1
289 239 m 1,7,-1
 301 359 l 1,8,-1
 421 359 l 1,9,-1
 409 239 l 1,10,-1
 289 239 l 1,7,-1
EndSplineSet
EndChar

StartChar: Lslash
Encoding: 321 321 197
Width: 479
GlyphClass: 2
Flags: W
LayerCount: 2
Fore
SplineSet
50 291 m 1,0,-1
 58 365 l 1,1,-1
 129 380 l 1,2,-1
 163 700 l 1,3,-1
 263 700 l 1,4,-1
 232 402 l 1,5,-1
 340 425 l 1,6,-1
 332 351 l 1,7,-1
 224 328 l 1,8,-1
 199 90 l 1,9,-1
 458 90 l 1,10,-1
 449 0 l 1,11,-1
 90 0 l 1,12,-1
 122 306 l 1,13,-1
 50 291 l 1,0,-1
EndSplineSet
EndChar

StartChar: lslash
Encoding: 322 322 198
Width: 317
GlyphClass: 2
Flags: W
LayerCount: 2
Fore
SplineSet
50 291 m 1,0,-1
 58 365 l 1,1,-1
 120 381 l 1,2,-1
 156 730 l 1,3,-1
 253 730 l 1,4,-1
 219 408 l 1,5,-1
 322 435 l 1,6,-1
 314 361 l 1,7,-1
 212 334 l 1,8,-1
 186 87 l 1,9,-1
 306 87 l 1,10,-1
 297 0 l 1,11,-1
 196 0 l 1,12,-1
 87 67 l 1,13,-1
 112 307 l 1,14,-1
 50 291 l 1,0,-1
EndSplineSet
EndChar

StartChar: nacute
Encoding: 324 324 200
Width: 585
GlyphClass: 2
Flags: W
LayerCount: 2
Fore
SplineSet
551 438 m 1,0,-1
 505 0 l 1,1,-1
 408 0 l 1,2,-1
 451 418 l 1,3,-1
 220 418 l 1,4,-1
 177 0 l 1,5,-1
 80 0 l 1,6,-1
 133 505 l 1,7,-1
 206 505 l 1,8,-1
 225 464 l 1,9,-1
 301 505 l 1,10,-1
 442 505 l 1,11,-1
 551 438 l 1,0,-1
263 590 m 1,12,-1
 370 718 l 1,13,-1
 500 718 l 1,14,-1
 343 590 l 1,15,-1
 263 590 l 1,12,-1
EndSplineSet
EndChar

StartChar: OE
Encoding: 338 338 201
Width: 964
GlyphClass: 2
Flags: W
LayerCount: 2
Fore
SplineSet
648 315 m 1,0,-1
 624 90 l 1,1,-1
 923 90 l 1,2,-1
 914 0 l 1,3,-1
 206 0 l 1,4,-1
 97 67 l 1,5,-1
 156 633 l 1,6,-1
 279 700 l 1,7,-1
 987 700 l 1,8,-1
 978 610 l 1,9,-1
 679 610 l 1,10,-1
 657 405 l 1,11,-1
 896 405 l 1,12,-1
 887 315 l 1,13,-1
 648 315 l 1,0,-1
254 610 m 1,14,-1
 199 90 l 1,15,-1
 524 90 l 1,16,-1
 579 610 l 1,17,-1
 254 610 l 1,14,-1
EndSplineSet
EndChar

StartChar: oe
Encoding: 339 339 202
Width: 883
GlyphClass: 2
Flags: W
LayerCount: 2
Fore
SplineSet
812 87 m 1,0,-1
 803 0 l 1,1,-1
 524 0 l 1,2,-1
 464 36 l 1,3,-1
 388 -5 l 1,4,-1
 195 -5 l 1,5,-1
 86 62 l 1,6,-1
 126 438 l 1,7,-1
 249 505 l 1,8,-1
 442 505 l 1,9,-1
 504 466 l 1,10,-1
 577 505 l 1,11,-1
 740 505 l 1,12,-1
 849 438 l 1,13,-1
 825 216 l 1,14,-1
 527 216 l 1,15,-1
 514 87 l 1,16,-1
 812 87 l 1,0,-1
220 418 m 1,17,-1
 185 82 l 1,18,-1
 416 82 l 1,19,-1
 451 418 l 1,20,-1
 220 418 l 1,17,-1
548 418 m 1,21,-1
 536 303 l 1,22,-1
 737 303 l 1,23,-1
 749 418 l 1,24,-1
 548 418 l 1,21,-1
EndSplineSet
EndChar

StartChar: Rcommaaccent
Encoding: 342 342 204
Width: 655
GlyphClass: 2
Flags: W
LayerCount: 2
Fore
SplineSet
370 279 m 1,0,-1
 219 279 l 1,1,-1
 190 0 l 1,2,-1
 90 0 l 1,3,-1
 163 700 l 1,4,-1
 522 700 l 1,5,-1
 631 633 l 1,6,-1
 601 346 l 1,7,-1
 478 279 l 1,8,-1
 610 0 l 1,9,-1
 499 0 l 1,10,-1
 370 279 l 1,0,-1
254 610 m 1,11,-1
 228 369 l 1,12,-1
 503 369 l 1,13,-1
 529 610 l 1,14,-1
 254 610 l 1,11,-1
236 -335 m 1,15,-1
 266 -55 l 1,16,-1
 386 -55 l 1,17,-1
 382 -89 l 1,18,-1
 270 -335 l 1,19,-1
 236 -335 l 1,15,-1
EndSplineSet
EndChar

StartChar: rcommaaccent
Encoding: 343 343 205
Width: 389
GlyphClass: 2
Flags: W
LayerCount: 2
Fore
SplineSet
402 413 m 1,0,-1
 220 413 l 1,1,-1
 177 0 l 1,2,-1
 80 0 l 1,3,-1
 132 500 l 1,4,-1
 205 500 l 1,5,-1
 225 459 l 1,6,-1
 300 500 l 1,7,-1
 411 500 l 1,8,-1
 402 413 l 1,0,-1
113 -335 m 1,9,-1
 143 -55 l 1,10,-1
 263 -55 l 1,11,-1
 259 -89 l 1,12,-1
 147 -335 l 1,13,-1
 113 -335 l 1,9,-1
EndSplineSet
EndChar

StartChar: rcaron
Encoding: 345 345 207
Width: 389
GlyphClass: 2
Flags: W
LayerCount: 2
Fore
SplineSet
402 413 m 1,0,-1
 220 413 l 1,1,-1
 177 0 l 1,2,-1
 80 0 l 1,3,-1
 132 500 l 1,4,-1
 205 500 l 1,5,-1
 225 459 l 1,6,-1
 300 500 l 1,7,-1
 411 500 l 1,8,-1
 402 413 l 1,0,-1
311 590 m 1,9,-1
 201 590 l 1,10,-1
 115 728 l 1,11,-1
 190 728 l 1,12,-1
 262 648 l 1,13,-1
 351 728 l 1,14,-1
 426 728 l 1,15,-1
 311 590 l 1,9,-1
EndSplineSet
EndChar

StartChar: Scaron
Encoding: 352 352 208
Width: 645
GlyphClass: 2
Flags: W
LayerCount: 2
Fore
SplineSet
128 370 m 1,0,-1
 157 638 l 1,1,-1
 280 705 l 1,2,-1
 513 705 l 1,3,-1
 622 638 l 1,4,-1
 611 535 l 1,5,-1
 511 535 l 1,6,-1
 519 615 l 1,7,-1
 254 615 l 1,8,-1
 232 403 l 1,9,-1
 481 403 l 1,10,-1
 590 336 l 1,11,-1
 561 62 l 1,12,-1
 438 -5 l 1,13,-1
 195 -5 l 1,14,-1
 86 62 l 1,15,-1
 97 165 l 1,16,-1
 197 165 l 1,17,-1
 188 85 l 1,18,-1
 463 85 l 1,19,-1
 486 303 l 1,20,-1
 237 303 l 1,21,-1
 128 370 l 1,0,-1
442 780 m 1,22,-1
 332 780 l 1,23,-1
 246 918 l 1,24,-1
 321 918 l 1,25,-1
 393 838 l 1,26,-1
 482 918 l 1,27,-1
 557 918 l 1,28,-1
 442 780 l 1,22,-1
EndSplineSet
EndChar

StartChar: scaron
Encoding: 353 353 209
Width: 536
GlyphClass: 2
Flags: W
LayerCount: 2
Fore
SplineSet
480 230 m 1,0,-1
 463 67 l 1,1,-1
 340 0 l 1,2,-1
 80 0 l 1,3,-1
 89 87 l 1,4,-1
 368 87 l 1,5,-1
 381 210 l 1,6,-1
 218 210 l 1,7,-1
 109 277 l 1,8,-1
 125 433 l 1,9,-1
 248 500 l 1,10,-1
 498 500 l 1,11,-1
 489 413 l 1,12,-1
 220 413 l 1,13,-1
 208 297 l 1,14,-1
 371 297 l 1,15,-1
 480 230 l 1,0,-1
385 590 m 1,16,-1
 275 590 l 1,17,-1
 189 728 l 1,18,-1
 264 728 l 1,19,-1
 336 648 l 1,20,-1
 425 728 l 1,21,-1
 500 728 l 1,22,-1
 385 590 l 1,16,-1
EndSplineSet
EndChar

StartChar: Ydieresis
Encoding: 376 376 210
Width: 611
GlyphClass: 2
Flags: W
LayerCount: 2
Fore
SplineSet
255 0 m 1,0,-1
 287 309 l 1,1,-1
 93 700 l 1,2,-1
 205 700 l 1,3,-1
 346 402 l 1,4,-1
 348 402 l 1,5,-1
 552 700 l 1,6,-1
 664 700 l 1,7,-1
 387 308 l 1,8,-1
 355 0 l 1,9,-1
 255 0 l 1,0,-1
205 785 m 1,10,-1
 216 890 l 1,11,-1
 321 890 l 1,12,-1
 310 785 l 1,13,-1
 205 785 l 1,10,-1
424 785 m 1,14,-1
 435 890 l 1,15,-1
 540 890 l 1,16,-1
 529 785 l 1,17,-1
 424 785 l 1,14,-1
EndSplineSet
EndChar

StartChar: Zcaron
Encoding: 381 381 211
Width: 585
GlyphClass: 2
Flags: W
LayerCount: 2
Fore
SplineSet
134 610 m 1,0,-1
 143 700 l 1,1,-1
 598 700 l 1,2,-1
 592 640 l 1,3,-1
 189 92 l 1,4,-1
 189 90 l 1,5,-1
 534 90 l 1,6,-1
 525 0 l 1,7,-1
 50 0 l 1,8,-1
 56 60 l 1,9,-1
 458 608 l 1,10,-1
 459 610 l 1,11,-1
 134 610 l 1,0,-1
406 780 m 1,12,-1
 296 780 l 1,13,-1
 210 918 l 1,14,-1
 285 918 l 1,15,-1
 357 838 l 1,16,-1
 446 918 l 1,17,-1
 521 918 l 1,18,-1
 406 780 l 1,12,-1
EndSplineSet
EndChar

StartChar: zcaron
Encoding: 382 382 212
Width: 466
GlyphClass: 2
Flags: W
LayerCount: 2
Fore
SplineSet
46 66 m 1,0,-1
 335 411 l 1,1,-1
 335 413 l 1,2,-1
 93 413 l 1,3,-1
 102 500 l 1,4,-1
 468 500 l 1,5,-1
 461 434 l 1,6,-1
 173 89 l 1,7,-1
 173 87 l 1,8,-1
 425 87 l 1,9,-1
 416 0 l 1,10,-1
 40 0 l 1,11,-1
 46 66 l 1,0,-1
342 590 m 1,12,-1
 232 590 l 1,13,-1
 146 728 l 1,14,-1
 221 728 l 1,15,-1
 293 648 l 1,16,-1
 382 728 l 1,17,-1
 457 728 l 1,18,-1
 342 590 l 1,12,-1
EndSplineSet
EndChar

StartChar: florin
Encoding: 402 402 213
Width: 389
GlyphClass: 2
Flags: W
LayerCount: 2
Fore
SplineSet
272 413 m 1,0,-1
 215 -133 l 1,1,-1
 91 -200 l 1,2,-1
 -9 -200 l 1,3,-1
 0 -113 l 1,4,-1
 120 -113 l 1,5,-1
 175 413 l 1,6,-1
 83 413 l 1,7,-1
 92 500 l 1,8,-1
 184 500 l 1,9,-1
 201 663 l 1,10,-1
 324 730 l 1,11,-1
 425 730 l 1,12,-1
 416 643 l 1,13,-1
 296 643 l 1,14,-1
 281 500 l 1,15,-1
 401 500 l 1,16,-1
 392 413 l 1,17,-1
 272 413 l 1,0,-1
EndSplineSet
EndChar

StartChar: circumflex
Encoding: 710 710 214
Width: 531
GlyphClass: 2
Flags: W
LayerCount: 2
Fore
SplineSet
286 728 m 1,0,-1
 396 728 l 1,1,-1
 483 590 l 1,2,-1
 408 590 l 1,3,-1
 335 670 l 1,4,-1
 247 590 l 1,5,-1
 172 590 l 1,6,-1
 286 728 l 1,0,-1
EndSplineSet
EndChar

StartChar: caron
Encoding: 711 711 215
Width: 531
GlyphClass: 2
Flags: W
LayerCount: 2
Fore
SplineSet
382 590 m 1,0,-1
 272 590 l 1,1,-1
 186 728 l 1,2,-1
 261 728 l 1,3,-1
 333 648 l 1,4,-1
 422 728 l 1,5,-1
 497 728 l 1,6,-1
 382 590 l 1,0,-1
EndSplineSet
EndChar

StartChar: breve
Encoding: 728 728 216
Width: 529
GlyphClass: 2
Flags: W
LayerCount: 2
Fore
SplineSet
409 736 m 1,0,-1
 484 736 l 1,1,-1
 472 627 l 1,2,-1
 385 580 l 1,3,-1
 264 580 l 1,4,-1
 187 627 l 1,5,-1
 199 736 l 1,6,-1
 274 736 l 1,7,-1
 264 645 l 1,8,-1
 399 645 l 1,9,-1
 409 736 l 1,0,-1
EndSplineSet
EndChar

StartChar: dotaccent
Encoding: 729 729 217
Width: 350
GlyphClass: 2
Flags: W
LayerCount: 2
Fore
SplineSet
162 591 m 1,0,-1
 177 741 l 1,1,-1
 327 741 l 1,2,-1
 312 591 l 1,3,-1
 162 591 l 1,0,-1
EndSplineSet
EndChar

StartChar: ring
Encoding: 730 730 218
Width: 529
GlyphClass: 2
Flags: W
LayerCount: 2
Fore
SplineSet
471 617 m 1,0,-1
 384 570 l 1,1,-1
 263 570 l 1,2,-1
 186 617 l 1,3,-1
 204 786 l 1,4,-1
 291 833 l 1,5,-1
 412 833 l 1,6,-1
 489 786 l 1,7,-1
 471 617 l 1,0,-1
277 768 m 1,8,-1
 263 635 l 1,9,-1
 398 635 l 1,10,-1
 412 768 l 1,11,-1
 277 768 l 1,8,-1
EndSplineSet
EndChar

StartChar: ogonek
Encoding: 731 731 219
Width: 520
GlyphClass: 2
Flags: W
LayerCount: 2
Fore
SplineSet
247 0 m 1,0,-1
 233 -131 l 1,1,-1
 326 -131 l 1,2,-1
 319 -198 l 1,3,-1
 275 -198 l 1,4,-1
 166 -131 l 1,5,-1
 180 0 l 1,6,-1
 247 0 l 1,0,-1
EndSplineSet
EndChar

StartChar: tilde
Encoding: 732 732 220
Width: 506
GlyphClass: 2
Flags: W
LayerCount: 2
Fore
SplineSet
240 667 m 1,0,-1
 238 667 l 1,1,-1
 229 585 l 1,2,-1
 161 585 l 1,3,-1
 171 679 l 1,4,-1
 271 734 l 1,5,-1
 404 652 l 1,6,-1
 406 652 l 1,7,-1
 415 734 l 1,8,-1
 483 734 l 1,9,-1
 473 640 l 1,10,-1
 373 585 l 1,11,-1
 240 667 l 1,0,-1
EndSplineSet
EndChar

StartChar: hungarumlaut
Encoding: 733 733 221
Width: 500
GlyphClass: 2
Flags: W
LayerCount: 2
Fore
SplineSet
307 590 m 1,0,-1
 414 718 l 1,1,-1
 544 718 l 1,2,-1
 387 590 l 1,3,-1
 307 590 l 1,0,-1
128 590 m 1,4,-1
 235 718 l 1,5,-1
 365 718 l 1,6,-1
 208 590 l 1,7,-1
 128 590 l 1,4,-1
EndSplineSet
EndChar

StartChar: endash
Encoding: 8211 8211 222
Width: 696
GlyphClass: 2
Flags: W
LayerCount: 2
Fore
SplineSet
92 218 m 1,0,-1
 102 305 l 1,1,-1
 658 305 l 1,2,-1
 648 218 l 1,3,-1
 92 218 l 1,0,-1
EndSplineSet
EndChar

StartChar: emdash
Encoding: 8212 8212 223
Width: 974
GlyphClass: 2
Flags: W
LayerCount: 2
Fore
SplineSet
92 218 m 1,0,-1
 102 305 l 1,1,-1
 936 305 l 1,2,-1
 926 218 l 1,3,-1
 92 218 l 1,0,-1
EndSplineSet
EndChar

StartChar: quoteleft
Encoding: 8216 8216 224
Width: 330
GlyphClass: 2
Flags: W
LayerCount: 2
Fore
SplineSet
316 730 m 1,0,-1
 279 380 l 1,1,-1
 129 380 l 1,2,-1
 134 422 l 1,3,-1
 274 730 l 1,4,-1
 316 730 l 1,0,-1
EndSplineSet
EndChar

StartChar: quoteright
Encoding: 8217 8217 225
Width: 330
GlyphClass: 2
Flags: W
LayerCount: 2
Fore
SplineSet
129 380 m 1,0,-1
 166 730 l 1,1,-1
 316 730 l 1,2,-1
 312 688 l 1,3,-1
 171 380 l 1,4,-1
 129 380 l 1,0,-1
EndSplineSet
EndChar

StartChar: quotesinglbase
Encoding: 8218 8218 226
Width: 350
GlyphClass: 2
Flags: W
LayerCount: 2
Fore
SplineSet
78 -200 m 1,0,-1
 115 150 l 1,1,-1
 265 150 l 1,2,-1
 261 108 l 1,3,-1
 120 -200 l 1,4,-1
 78 -200 l 1,0,-1
EndSplineSet
EndChar

StartChar: quotedblleft
Encoding: 8220 8220 227
Width: 570
GlyphClass: 2
Flags: W
LayerCount: 2
Fore
SplineSet
556 730 m 1,0,-1
 519 380 l 1,1,-1
 369 380 l 1,2,-1
 374 422 l 1,3,-1
 514 730 l 1,4,-1
 556 730 l 1,0,-1
316 730 m 1,5,-1
 279 380 l 1,6,-1
 129 380 l 1,7,-1
 134 422 l 1,8,-1
 274 730 l 1,9,-1
 316 730 l 1,5,-1
EndSplineSet
EndChar

StartChar: quotedblright
Encoding: 8221 8221 228
Width: 570
GlyphClass: 2
Flags: W
LayerCount: 2
Fore
SplineSet
129 380 m 1,0,-1
 166 730 l 1,1,-1
 316 730 l 1,2,-1
 312 688 l 1,3,-1
 171 380 l 1,4,-1
 129 380 l 1,0,-1
369 380 m 1,5,-1
 406 730 l 1,6,-1
 556 730 l 1,7,-1
 552 688 l 1,8,-1
 411 380 l 1,9,-1
 369 380 l 1,5,-1
EndSplineSet
EndChar

StartChar: quotedblbase
Encoding: 8222 8222 229
Width: 590
GlyphClass: 2
Flags: W
LayerCount: 2
Fore
SplineSet
78 -200 m 1,0,-1
 115 150 l 1,1,-1
 265 150 l 1,2,-1
 261 108 l 1,3,-1
 120 -200 l 1,4,-1
 78 -200 l 1,0,-1
318 -200 m 1,5,-1
 355 150 l 1,6,-1
 505 150 l 1,7,-1
 501 108 l 1,8,-1
 360 -200 l 1,9,-1
 318 -200 l 1,5,-1
EndSplineSet
EndChar

StartChar: dagger
Encoding: 8224 8224 230
Width: 583
GlyphClass: 2
Flags: W
LayerCount: 2
Fore
SplineSet
370 444 m 1,0,-1
 312 -200 l 1,1,-1
 227 -200 l 1,2,-1
 305 444 l 1,3,-1
 105 434 l 1,4,-1
 114 519 l 1,5,-1
 312 509 l 1,6,-1
 325 731 l 1,7,-1
 410 731 l 1,8,-1
 377 509 l 1,9,-1
 577 519 l 1,10,-1
 568 434 l 1,11,-1
 370 444 l 1,0,-1
EndSplineSet
EndChar

StartChar: daggerdbl
Encoding: 8225 8225 231
Width: 583
GlyphClass: 2
Flags: W
LayerCount: 2
Fore
SplineSet
358 266 m 1,0,-1
 333 87 l 1,1,-1
 533 97 l 1,2,-1
 524 12 l 1,3,-1
 326 22 l 1,4,-1
 312 -200 l 1,5,-1
 227 -200 l 1,6,-1
 261 22 l 1,7,-1
 61 12 l 1,8,-1
 70 97 l 1,9,-1
 268 87 l 1,10,-1
 279 266 l 1,11,-1
 305 444 l 1,12,-1
 105 434 l 1,13,-1
 114 519 l 1,14,-1
 312 509 l 1,15,-1
 325 731 l 1,16,-1
 410 731 l 1,17,-1
 377 509 l 1,18,-1
 577 519 l 1,19,-1
 568 434 l 1,20,-1
 370 444 l 1,21,-1
 358 266 l 1,0,-1
EndSplineSet
EndChar

StartChar: bullet
Encoding: 8226 8226 232
Width: 580
GlyphClass: 2
Flags: W
LayerCount: 2
Fore
SplineSet
503 224 m 1,0,-1
 380 157 l 1,1,-1
 232 157 l 1,2,-1
 123 224 l 1,3,-1
 149 470 l 1,4,-1
 272 537 l 1,5,-1
 420 537 l 1,6,-1
 529 470 l 1,7,-1
 503 224 l 1,0,-1
EndSplineSet
EndChar

StartChar: ellipsis
Encoding: 8230 8230 233
Width: 970
GlyphClass: 2
Flags: W
LayerCount: 2
Fore
SplineSet
100 0 m 1,0,-1
 115 150 l 1,1,-1
 265 150 l 1,2,-1
 250 0 l 1,3,-1
 100 0 l 1,0,-1
410 0 m 1,4,-1
 425 150 l 1,5,-1
 575 150 l 1,6,-1
 560 0 l 1,7,-1
 410 0 l 1,4,-1
720 0 m 1,8,-1
 735 150 l 1,9,-1
 885 150 l 1,10,-1
 870 0 l 1,11,-1
 720 0 l 1,8,-1
EndSplineSet
EndChar

StartChar: perthousand
Encoding: 8240 8240 234
Width: 1396
GlyphClass: 2
Flags: W
LayerCount: 2
Fore
SplineSet
781 710 m 1,0,-1
 871 710 l 1,1,-1
 282 -10 l 1,2,-1
 192 -10 l 1,3,-1
 781 710 l 1,0,-1
469 424 m 1,4,-1
 346 357 l 1,5,-1
 233 357 l 1,6,-1
 124 424 l 1,7,-1
 147 643 l 1,8,-1
 270 710 l 1,9,-1
 383 710 l 1,10,-1
 492 643 l 1,11,-1
 469 424 l 1,4,-1
237 629 m 1,12,-1
 217 438 l 1,13,-1
 380 438 l 1,14,-1
 400 629 l 1,15,-1
 237 629 l 1,12,-1
595 276 m 1,16,-1
 718 343 l 1,17,-1
 831 343 l 1,18,-1
 940 276 l 1,19,-1
 916 57 l 1,20,-1
 793 -10 l 1,21,-1
 680 -10 l 1,22,-1
 571 57 l 1,23,-1
 595 276 l 1,16,-1
827 71 m 1,24,-1
 847 262 l 1,25,-1
 684 262 l 1,26,-1
 664 71 l 1,27,-1
 827 71 l 1,24,-1
1030 276 m 1,28,-1
 1153 343 l 1,29,-1
 1266 343 l 1,30,-1
 1375 276 l 1,31,-1
 1351 57 l 1,32,-1
 1228 -10 l 1,33,-1
 1115 -10 l 1,34,-1
 1006 57 l 1,35,-1
 1030 276 l 1,28,-1
1262 71 m 1,36,-1
 1282 262 l 1,37,-1
 1119 262 l 1,38,-1
 1099 71 l 1,39,-1
 1262 71 l 1,36,-1
EndSplineSet
EndChar

StartChar: guilsinglleft
Encoding: 8249 8249 235
Width: 430
GlyphClass: 2
Flags: W
LayerCount: 2
Fore
SplineSet
351 107 m 1,0,-1
 340 0 l 1,1,-1
 111 200 l 1,2,-1
 121 302 l 1,3,-1
 392 502 l 1,4,-1
 381 395 l 1,5,-1
 183 252 l 1,6,-1
 183 251 l 1,7,-1
 351 107 l 1,0,-1
EndSplineSet
EndChar

StartChar: guilsinglright
Encoding: 8250 8250 236
Width: 430
GlyphClass: 2
Flags: W
LayerCount: 2
Fore
SplineSet
90 0 m 1,0,-1
 101 107 l 1,1,-1
 299 251 l 1,2,-1
 299 252 l 1,3,-1
 131 395 l 1,4,-1
 142 502 l 1,5,-1
 371 302 l 1,6,-1
 361 200 l 1,7,-1
 90 0 l 1,0,-1
EndSplineSet
EndChar

StartChar: fraction
Encoding: 8260 8260 237
Width: 663
GlyphClass: 2
Flags: W
LayerCount: 2
Fore
SplineSet
637 710 m 1,0,-1
 727 710 l 1,1,-1
 98 -10 l 1,2,-1
 8 -10 l 1,3,-1
 637 710 l 1,0,-1
EndSplineSet
EndChar

StartChar: Euro
Encoding: 8364 8364 238
Width: 674
GlyphClass: 2
Flags: W
LayerCount: 2
Fore
SplineSet
506 461 m 1,0,-1
 455 387 l 1,1,-1
 247 387 l 1,2,-1
 239 313 l 1,3,-1
 405 313 l 1,4,-1
 355 239 l 1,5,-1
 232 239 l 1,6,-1
 215 85 l 1,7,-1
 502 85 l 1,8,-1
 512 175 l 1,9,-1
 612 175 l 1,10,-1
 600 62 l 1,11,-1
 477 -5 l 1,12,-1
 222 -5 l 1,13,-1
 113 62 l 1,14,-1
 132 239 l 1,15,-1
 55 239 l 1,16,-1
 62 313 l 1,17,-1
 139 313 l 1,18,-1
 147 387 l 1,19,-1
 70 387 l 1,20,-1
 78 461 l 1,21,-1
 155 461 l 1,22,-1
 174 638 l 1,23,-1
 297 705 l 1,24,-1
 552 705 l 1,25,-1
 661 638 l 1,26,-1
 649 525 l 1,27,-1
 549 525 l 1,28,-1
 558 615 l 1,29,-1
 271 615 l 1,30,-1
 255 461 l 1,31,-1
 506 461 l 1,0,-1
EndSplineSet
EndChar

StartChar: trademark
Encoding: 8482 8482 239
Width: 845
GlyphClass: 2
Flags: W
LayerCount: 2
Fore
SplineSet
724 340 m 1,0,-1
 750 583 l 1,1,-1
 748 583 l 1,2,-1
 638 340 l 1,3,-1
 577 340 l 1,4,-1
 521 583 l 1,5,-1
 519 583 l 1,6,-1
 493 340 l 1,7,-1
 427 340 l 1,8,-1
 465 700 l 1,9,-1
 550 700 l 1,10,-1
 618 435 l 1,11,-1
 620 435 l 1,12,-1
 743 700 l 1,13,-1
 828 700 l 1,14,-1
 790 340 l 1,15,-1
 724 340 l 1,0,-1
301 637 m 1,16,-1
 270 340 l 1,17,-1
 202 340 l 1,18,-1
 233 637 l 1,19,-1
 136 637 l 1,20,-1
 143 700 l 1,21,-1
 404 700 l 1,22,-1
 397 637 l 1,23,-1
 301 637 l 1,16,-1
EndSplineSet
EndChar

StartChar: partialdiff
Encoding: 8706 8706 240
Width: 635
GlyphClass: 2
Flags: W
LayerCount: 2
Fore
SplineSet
509 615 m 1,0,-1
 270 615 l 1,1,-1
 280 705 l 1,2,-1
 503 705 l 1,3,-1
 612 638 l 1,4,-1
 551 62 l 1,5,-1
 428 -5 l 1,6,-1
 205 -5 l 1,7,-1
 96 62 l 1,8,-1
 128 363 l 1,9,-1
 251 430 l 1,10,-1
 419 430 l 1,11,-1
 485 389 l 1,12,-1
 509 615 l 1,0,-1
453 85 m 1,13,-1
 480 340 l 1,14,-1
 225 340 l 1,15,-1
 198 85 l 1,16,-1
 453 85 l 1,13,-1
EndSplineSet
EndChar

StartChar: minus
Encoding: 8722 8722 241
Width: 600
GlyphClass: 2
Flags: W
LayerCount: 2
Fore
SplineSet
581 297 m 1,0,-1
 571 203 l 1,1,-1
 71 203 l 1,2,-1
 81 297 l 1,3,-1
 581 297 l 1,0,-1
EndSplineSet
EndChar

StartChar: infinity
Encoding: 8734 8734 242
Width: 890
GlyphClass: 2
Flags: W
LayerCount: 2
Fore
SplineSet
234 428 m 1,0,-1
 210 193 l 1,1,-1
 415 193 l 1,2,-1
 439 428 l 1,3,-1
 234 428 l 1,0,-1
539 428 m 1,4,-1
 515 193 l 1,5,-1
 720 193 l 1,6,-1
 744 428 l 1,7,-1
 539 428 l 1,4,-1
817 170 m 1,8,-1
 694 103 l 1,9,-1
 571 103 l 1,10,-1
 462 170 l 1,11,-1
 339 103 l 1,12,-1
 216 103 l 1,13,-1
 107 170 l 1,14,-1
 137 451 l 1,15,-1
 260 518 l 1,16,-1
 383 518 l 1,17,-1
 492 451 l 1,18,-1
 615 518 l 1,19,-1
 738 518 l 1,20,-1
 847 451 l 1,21,-1
 817 170 l 1,8,-1
EndSplineSet
EndChar

StartChar: approxequal
Encoding: 8776 8776 243
Width: 722
GlyphClass: 2
Flags: W
LayerCount: 2
Fore
SplineSet
310 371 m 1,0,-1
 215 371 l 1,1,-1
 207 289 l 1,2,-1
 120 289 l 1,3,-1
 131 391 l 1,4,-1
 254 458 l 1,5,-1
 357 458 l 1,6,-1
 489 376 l 1,7,-1
 584 376 l 1,8,-1
 593 458 l 1,9,-1
 680 458 l 1,10,-1
 669 356 l 1,11,-1
 546 289 l 1,12,-1
 443 289 l 1,13,-1
 310 371 l 1,0,-1
285 133 m 1,14,-1
 190 133 l 1,15,-1
 182 51 l 1,16,-1
 95 51 l 1,17,-1
 106 153 l 1,18,-1
 229 220 l 1,19,-1
 332 220 l 1,20,-1
 464 138 l 1,21,-1
 559 138 l 1,22,-1
 568 220 l 1,23,-1
 655 220 l 1,24,-1
 644 118 l 1,25,-1
 521 51 l 1,26,-1
 418 51 l 1,27,-1
 285 133 l 1,14,-1
EndSplineSet
EndChar

StartChar: notequal
Encoding: 8800 8800 244
Width: 680
GlyphClass: 2
Flags: W
LayerCount: 2
Fore
SplineSet
633 411 m 1,0,-1
 623 317 l 1,1,-1
 470 317 l 1,2,-1
 351 183 l 1,3,-1
 609 183 l 1,4,-1
 599 89 l 1,5,-1
 267 89 l 1,6,-1
 178 -11 l 1,7,-1
 88 -11 l 1,8,-1
 177 89 l 1,9,-1
 99 89 l 1,10,-1
 109 183 l 1,11,-1
 261 183 l 1,12,-1
 380 317 l 1,13,-1
 123 317 l 1,14,-1
 133 411 l 1,15,-1
 464 411 l 1,16,-1
 553 511 l 1,17,-1
 643 511 l 1,18,-1
 554 411 l 1,19,-1
 633 411 l 1,0,-1
EndSplineSet
EndChar

StartChar: lessequal
Encoding: 8804 8804 245
Width: 680
GlyphClass: 2
Flags: W
LayerCount: 2
Fore
SplineSet
642 501 m 1,0,-1
 633 410 l 1,1,-1
 259 321 l 1,2,-1
 259 319 l 1,3,-1
 614 230 l 1,4,-1
 604 139 l 1,5,-1
 118 269 l 1,6,-1
 128 371 l 1,7,-1
 642 501 l 1,0,-1
599 94 m 1,8,-1
 590 0 l 1,9,-1
 90 0 l 1,10,-1
 99 94 l 1,11,-1
 599 94 l 1,8,-1
EndSplineSet
EndChar

StartChar: greaterequal
Encoding: 8805 8805 246
Width: 680
GlyphClass: 2
Flags: W
LayerCount: 2
Fore
SplineSet
133 410 m 1,0,-1
 142 501 l 1,1,-1
 628 371 l 1,2,-1
 618 269 l 1,3,-1
 104 139 l 1,4,-1
 114 230 l 1,5,-1
 487 319 l 1,6,-1
 487 321 l 1,7,-1
 133 410 l 1,0,-1
90 0 m 1,8,-1
 99 94 l 1,9,-1
 599 94 l 1,10,-1
 590 0 l 1,11,-1
 90 0 l 1,8,-1
EndSplineSet
EndChar

StartChar: a.alt
Encoding: 57345 57345 247
Width: 535
GlyphClass: 2
Flags: W
LayerCount: 2
Fore
SplineSet
178 205 m 1,0,-1
 165 82 l 1,1,-1
 366 82 l 1,2,-1
 379 205 l 1,3,-1
 178 205 l 1,0,-1
175 -5 m 1,4,-1
 66 62 l 1,5,-1
 83 225 l 1,6,-1
 206 292 l 1,7,-1
 388 292 l 1,8,-1
 401 413 l 1,9,-1
 153 413 l 1,10,-1
 162 500 l 1,11,-1
 391 500 l 1,12,-1
 500 433 l 1,13,-1
 454 -5 l 1,14,-1
 428 -5 l 1,15,-1
 361 36 l 1,16,-1
 286 -5 l 1,17,-1
 175 -5 l 1,4,-1
EndSplineSet
EndChar

StartChar: g.alt
Encoding: 57346 57346 248
Width: 575
GlyphClass: 2
Flags: W
LayerCount: 2
Fore
SplineSet
177 0 m 1,0,-1
 85 56 l 1,1,-1
 95 146 l 1,2,-1
 170 187 l 1,3,-1
 103 228 l 1,4,-1
 125 433 l 1,5,-1
 248 500 l 1,6,-1
 567 500 l 1,7,-1
 563 466 l 1,8,-1
 467 413 l 1,9,-1
 524 377 l 1,10,-1
 510 239 l 1,11,-1
 387 172 l 1,12,-1
 195 172 l 1,13,-1
 186 87 l 1,14,-1
 408 87 l 1,15,-1
 517 20 l 1,16,-1
 500 -138 l 1,17,-1
 377 -205 l 1,18,-1
 154 -205 l 1,19,-1
 45 -138 l 1,20,-1
 52 -76 l 1,21,-1
 154 -20 l 1,22,-1
 144 -120 l 1,23,-1
 405 -120 l 1,24,-1
 418 0 l 1,25,-1
 177 0 l 1,0,-1
220 415 m 1,26,-1
 204 257 l 1,27,-1
 415 257 l 1,28,-1
 431 415 l 1,29,-1
 220 415 l 1,26,-1
EndSplineSet
EndChar

StartChar: l.alt
Encoding: 57347 57347 249
Width: 257
GlyphClass: 2
Flags: W
LayerCount: 2
Fore
SplineSet
177 0 m 1,0,-1
 80 0 l 1,1,-1
 156 730 l 1,2,-1
 253 730 l 1,3,-1
 177 0 l 1,0,-1
EndSplineSet
EndChar

StartChar: dotlessj
Encoding: 63166 63166 250
Width: 257
GlyphClass: 2
Flags: W
LayerCount: 2
Fore
SplineSet
229 500 m 1,0,-1
 163 -133 l 1,1,-1
 39 -200 l 1,2,-1
 -61 -200 l 1,3,-1
 -51 -113 l 1,4,-1
 68 -113 l 1,5,-1
 132 500 l 1,6,-1
 229 500 l 1,0,-1
EndSplineSet
EndChar

StartChar: commaaccent
Encoding: 63171 63171 251
Width: 500
GlyphClass: 2
Flags: W
LayerCount: 2
Fore
SplineSet
64 -335 m 1,0,-1
 94 -55 l 1,1,-1
 214 -55 l 1,2,-1
 210 -89 l 1,3,-1
 98 -335 l 1,4,-1
 64 -335 l 1,0,-1
EndSplineSet
EndChar

StartChar: madslug
Encoding: 63488 63488 252
Width: 896
GlyphClass: 2
Flags: W
LayerCount: 2
Fore
SplineSet
650 51 m 1,0,1
 554 -9 554 -9 447 -9 c 0,2,3
 295 -9 295 -9 187.5 99 c 128,-1,4
 80 207 80 207 80 361 c 0,5,6
 80 458 80 458 123.5 534.5 c 128,-1,7
 167 611 167 611 215 611 c 128,-1,8
 263 611 263 611 263 560 c 0,9,10
 263 527 263 527 233.5 397 c 128,-1,11
 204 267 204 267 204 265 c 0,12,13
 204 254 204 254 222 254 c 128,-1,14
 240 254 240 254 278.5 263 c 128,-1,15
 317 272 317 272 321 280 c 0,16,17
 321 282 321 282 336 348 c 128,-1,18
 351 414 351 414 360 456 c 0,19,20
 380 557 380 557 380 592.5 c 128,-1,21
 380 628 380 628 348 648.5 c 128,-1,22
 316 669 316 669 267 669 c 1,23,-1
 248 667 l 1,24,-1
 246 670 l 1,25,26
 340 730 340 730 447 730 c 0,27,28
 601 730 601 730 708.5 622 c 128,-1,29
 816 514 816 514 816 360 c 0,30,31
 816 263 816 263 772.5 186.5 c 128,-1,32
 729 110 729 110 681 110 c 128,-1,33
 633 110 633 110 633 161 c 0,34,35
 633 194 633 194 662.5 324 c 128,-1,36
 692 454 692 454 692 455 c 0,37,38
 692 467 692 467 674 467 c 128,-1,39
 656 467 656 467 617.5 458 c 128,-1,40
 579 449 579 449 575 441 c 0,41,42
 575 439 575 439 560 373 c 128,-1,43
 545 307 545 307 536 265 c 0,44,45
 516 164 516 164 516 128.5 c 128,-1,46
 516 93 516 93 548 72.5 c 128,-1,47
 580 52 580 52 629 52 c 1,48,-1
 648 53 l 1,49,-1
 650 51 l 1,0,1
476 234 m 1,50,51
 489 287 489 287 511 390.5 c 128,-1,52
 533 494 533 494 533 502.5 c 128,-1,53
 533 511 533 511 515.5 511 c 128,-1,54
 498 511 498 511 465.5 504 c 128,-1,55
 433 497 433 497 420 487 c 1,56,57
 407 434 407 434 385 330.5 c 128,-1,58
 363 227 363 227 363 218 c 128,-1,59
 363 209 363 209 380 209 c 128,-1,60
 397 209 397 209 430 216.5 c 128,-1,61
 463 224 463 224 476 234 c 1,50,51
EndSplineSet
EndChar

StartChar: apple
Encoding: 63743 63743 253
Width: 858
GlyphClass: 2
Flags: W
LayerCount: 2
Fore
SplineSet
154 107 m 1,0,1
 80 235 80 235 80 351 c 128,-1,2
 80 467 80 467 133.5 542.5 c 128,-1,3
 187 618 187 618 279 618 c 0,4,5
 314 618 314 618 367 603 c 128,-1,6
 420 588 420 588 438.5 588 c 128,-1,7
 457 588 457 588 508 605 c 128,-1,8
 559 622 559 622 595 622 c 0,9,10
 655 622 655 622 702 590 c 1,11,12
 732 567 732 567 754 540 c 1,13,14
 709 501 709 501 686.5 465 c 128,-1,15
 664 429 664 429 664 371.5 c 128,-1,16
 664 314 664 314 698 265 c 128,-1,17
 732 216 732 216 778 202 c 1,18,19
 757 138 757 138 716 77 c 0,20,21
 651 -21 651 -21 587 -21 c 0,22,23
 561 -21 561 -21 518 -5 c 128,-1,24
 475 11 475 11 443.5 11 c 128,-1,25
 412 11 412 11 370 -6 c 128,-1,26
 328 -23 328 -23 304 -23 c 0,27,28
 227 -23 227 -23 154 107 c 1,0,1
589 790 m 0,29,30
 589 713 589 713 528 652 c 0,31,32
 504 628 504 628 484.5 620 c 128,-1,33
 465 612 465 612 422 608 c 1,34,35
 424 773 424 773 586 811 c 1,36,37
 589 802 589 802 589 790 c 0,29,30
EndSplineSet
EndChar

StartChar: fi
Encoding: 64257 64257 254
Width: 636
GlyphClass: 2
Flags: W
LayerCount: 2
Fore
SplineSet
83 413 m 1,0,-1
 92 500 l 1,1,-1
 184 500 l 1,2,-1
 201 663 l 1,3,-1
 324 730 l 1,4,-1
 637 730 l 1,5,-1
 628 643 l 1,6,-1
 296 643 l 1,7,-1
 281 500 l 1,8,-1
 421 500 l 1,9,-1
 412 413 l 1,10,-1
 272 413 l 1,11,-1
 229 0 l 1,12,-1
 132 0 l 1,13,-1
 175 413 l 1,14,-1
 83 413 l 1,0,-1
608 500 m 1,15,-1
 556 0 l 1,16,-1
 459 0 l 1,17,-1
 511 500 l 1,18,-1
 608 500 l 1,15,-1
EndSplineSet
EndChar

StartChar: fl
Encoding: 64258 64258 255
Width: 706
GlyphClass: 2
Flags: W
LayerCount: 2
Fore
SplineSet
585 0 m 1,0,-1
 476 67 l 1,1,-1
 536 643 l 1,2,-1
 296 643 l 1,3,-1
 281 500 l 1,4,-1
 431 500 l 1,5,-1
 422 413 l 1,6,-1
 272 413 l 1,7,-1
 229 0 l 1,8,-1
 132 0 l 1,9,-1
 175 413 l 1,10,-1
 83 413 l 1,11,-1
 92 500 l 1,12,-1
 184 500 l 1,13,-1
 201 663 l 1,14,-1
 324 730 l 1,15,-1
 642 730 l 1,16,-1
 575 87 l 1,17,-1
 695 87 l 1,18,-1
 686 0 l 1,19,-1
 585 0 l 1,0,-1
EndSplineSet
EndChar

StartChar: ffi
Encoding: 64259 64259 256
Width: 1035
GlyphClass: 2
Flags: W
LayerCount: 2
Fore
SplineSet
272 413 m 1,0,-1
 229 0 l 1,1,-1
 132 0 l 1,2,-1
 175 413 l 1,3,-1
 83 413 l 1,4,-1
 92 500 l 1,5,-1
 184 500 l 1,6,-1
 201 663 l 1,7,-1
 324 730 l 1,8,-1
 465 730 l 1,9,-1
 456 643 l 1,10,-1
 296 643 l 1,11,-1
 281 500 l 1,12,-1
 553 500 l 1,13,-1
 570 663 l 1,14,-1
 693 730 l 1,15,-1
 1036 730 l 1,16,-1
 1027 643 l 1,17,-1
 665 643 l 1,18,-1
 650 500 l 1,19,-1
 810 500 l 1,20,-1
 801 413 l 1,21,-1
 641 413 l 1,22,-1
 598 0 l 1,23,-1
 501 0 l 1,24,-1
 544 413 l 1,25,-1
 272 413 l 1,0,-1
1007 500 m 1,26,-1
 955 0 l 1,27,-1
 858 0 l 1,28,-1
 910 500 l 1,29,-1
 1007 500 l 1,26,-1
EndSplineSet
EndChar

StartChar: ffl
Encoding: 64260 64260 257
Width: 1095
GlyphClass: 2
Flags: W
LayerCount: 2
Fore
SplineSet
83 413 m 1,0,-1
 92 500 l 1,1,-1
 184 500 l 1,2,-1
 201 663 l 1,3,-1
 324 730 l 1,4,-1
 495 730 l 1,5,-1
 486 643 l 1,6,-1
 296 643 l 1,7,-1
 281 500 l 1,8,-1
 573 500 l 1,9,-1
 590 663 l 1,10,-1
 713 730 l 1,11,-1
 1031 730 l 1,12,-1
 964 87 l 1,13,-1
 1084 87 l 1,14,-1
 1075 0 l 1,15,-1
 974 0 l 1,16,-1
 865 67 l 1,17,-1
 925 643 l 1,18,-1
 685 643 l 1,19,-1
 670 500 l 1,20,-1
 820 500 l 1,21,-1
 811 413 l 1,22,-1
 661 413 l 1,23,-1
 618 0 l 1,24,-1
 521 0 l 1,25,-1
 564 413 l 1,26,-1
 272 413 l 1,27,-1
 229 0 l 1,28,-1
 132 0 l 1,29,-1
 175 413 l 1,30,-1
 83 413 l 1,0,-1
EndSplineSet
EndChar

StartChar: st
Encoding: 64262 64262 258
Width: 909
GlyphClass: 2
Flags: W
LayerCount: 2
Fore
SplineSet
220 413 m 1,0,-1
 208 297 l 1,1,-1
 371 297 l 1,2,-1
 480 230 l 1,3,-1
 463 67 l 1,4,-1
 340 0 l 1,5,-1
 80 0 l 1,6,-1
 89 87 l 1,7,-1
 368 87 l 1,8,-1
 381 210 l 1,9,-1
 218 210 l 1,10,-1
 109 277 l 1,11,-1
 125 433 l 1,12,-1
 248 500 l 1,13,-1
 684 500 l 1,14,-1
 693 584 l 1,15,-1
 796 640 l 1,16,-1
 781 500 l 1,17,-1
 901 500 l 1,18,-1
 892 413 l 1,19,-1
 772 413 l 1,20,-1
 738 87 l 1,21,-1
 858 87 l 1,22,-1
 849 0 l 1,23,-1
 748 0 l 1,24,-1
 639 67 l 1,25,-1
 675 413 l 1,26,-1
 220 413 l 1,0,-1
EndSplineSet
EndChar

StartChar: fj
Encoding: 64263 64263 259
Width: 636
GlyphClass: 2
Flags: W
LayerCount: 2
Fore
SplineSet
83 413 m 1,0,-1
 92 500 l 1,1,-1
 184 500 l 1,2,-1
 201 663 l 1,3,-1
 324 730 l 1,4,-1
 637 730 l 1,5,-1
 628 643 l 1,6,-1
 296 643 l 1,7,-1
 281 500 l 1,8,-1
 401 500 l 1,9,-1
 392 413 l 1,10,-1
 272 413 l 1,11,-1
 229 0 l 1,12,-1
 132 0 l 1,13,-1
 175 413 l 1,14,-1
 83 413 l 1,0,-1
608 500 m 1,15,-1
 542 -133 l 1,16,-1
 418 -200 l 1,17,-1
 317 -200 l 1,18,-1
 327 -113 l 1,19,-1
 447 -113 l 1,20,-1
 511 500 l 1,21,-1
 608 500 l 1,15,-1
EndSplineSet
EndChar

StartChar: ct
Encoding: 64264 64264 260
Width: 889
GlyphClass: 2
Flags: W
LayerCount: 2
Fore
SplineSet
220 413 m 1,0,-1
 186 87 l 1,1,-1
 464 87 l 1,2,-1
 455 0 l 1,3,-1
 196 0 l 1,4,-1
 87 67 l 1,5,-1
 125 433 l 1,6,-1
 248 500 l 1,7,-1
 644 500 l 1,8,-1
 653 584 l 1,9,-1
 756 640 l 1,10,-1
 741 500 l 1,11,-1
 861 500 l 1,12,-1
 852 413 l 1,13,-1
 732 413 l 1,14,-1
 698 87 l 1,15,-1
 818 87 l 1,16,-1
 809 0 l 1,17,-1
 708 0 l 1,18,-1
 599 67 l 1,19,-1
 635 413 l 1,20,-1
 220 413 l 1,0,-1
EndSplineSet
EndChar

StartChar: grave.cap
Encoding: 65539 -1 261
Width: 500
GlyphClass: 2
Flags: W
LayerCount: 2
Fore
SplineSet
390 918 m 1,0,-1
 471 790 l 1,1,-1
 391 790 l 1,2,-1
 260 918 l 1,3,-1
 390 918 l 1,0,-1
EndSplineSet
EndChar

StartChar: acute.cap
Encoding: 65540 -1 262
Width: 500
GlyphClass: 2
Flags: W
LayerCount: 2
Fore
SplineSet
247 790 m 1,0,-1
 354 918 l 1,1,-1
 484 918 l 1,2,-1
 327 790 l 1,3,-1
 247 790 l 1,0,-1
EndSplineSet
EndChar

StartChar: caron.cap
Encoding: 65541 -1 263
Width: 531
GlyphClass: 2
Flags: W
LayerCount: 2
Fore
SplineSet
382 790 m 1,0,-1
 272 790 l 1,1,-1
 186 928 l 1,2,-1
 261 928 l 1,3,-1
 333 848 l 1,4,-1
 422 928 l 1,5,-1
 497 928 l 1,6,-1
 382 790 l 1,0,-1
EndSplineSet
EndChar

StartChar: circumflex.cap
Encoding: 65542 -1 264
Width: 531
GlyphClass: 2
Flags: W
LayerCount: 2
Fore
SplineSet
286 928 m 1,0,-1
 396 928 l 1,1,-1
 483 790 l 1,2,-1
 408 790 l 1,3,-1
 335 870 l 1,4,-1
 247 790 l 1,5,-1
 172 790 l 1,6,-1
 286 928 l 1,0,-1
EndSplineSet
EndChar

StartChar: ring.cap
Encoding: 65543 -1 265
Width: 529
GlyphClass: 2
Flags: W
LayerCount: 2
Fore
SplineSet
471 817 m 1,0,-1
 384 770 l 1,1,-1
 263 770 l 1,2,-1
 186 817 l 1,3,-1
 204 986 l 1,4,-1
 291 1033 l 1,5,-1
 412 1033 l 1,6,-1
 489 986 l 1,7,-1
 471 817 l 1,0,-1
277 968 m 1,8,-1
 263 835 l 1,9,-1
 398 835 l 1,10,-1
 412 968 l 1,11,-1
 277 968 l 1,8,-1
EndSplineSet
EndChar

StartChar: dieresis.cap
Encoding: 65544 -1 266
Width: 544
GlyphClass: 2
Flags: W
LayerCount: 2
Fore
SplineSet
172 795 m 1,0,-1
 183 900 l 1,1,-1
 288 900 l 1,2,-1
 277 795 l 1,3,-1
 172 795 l 1,0,-1
391 795 m 1,4,-1
 402 900 l 1,5,-1
 507 900 l 1,6,-1
 496 795 l 1,7,-1
 391 795 l 1,4,-1
EndSplineSet
EndChar

StartChar: tilde.cap
Encoding: 65545 -1 267
Width: 506
GlyphClass: 2
Flags: W
LayerCount: 2
Fore
SplineSet
240 867 m 1,0,-1
 238 867 l 1,1,-1
 229 785 l 1,2,-1
 161 785 l 1,3,-1
 171 879 l 1,4,-1
 271 934 l 1,5,-1
 404 852 l 1,6,-1
 406 852 l 1,7,-1
 415 934 l 1,8,-1
 483 934 l 1,9,-1
 473 840 l 1,10,-1
 373 785 l 1,11,-1
 240 867 l 1,0,-1
EndSplineSet
EndChar
